<svg xmlns="http://www.w3.org/2000/svg" xmlns:xlink="http://www.w3.org/1999/xlink" width="599.021" height="484.369" viewBox="0 0 599.021 484.369">
  <defs>
    <clipPath id="clip-path">
      <path id="Path_2896" data-name="Path 2896" d="M306.49,0C252.348.032,198.007,8.9,147.536,32.626,65.667,71.108-28.5,161.609,8.149,292.978A233.507,233.507,0,0,0,80.263,406.17c31.893,27.493,68.363,44.3,105.2,56.145,85.737,27.57,175.7,29.322,260.835,5.082,49-13.954,99.21-39.075,128.3-91.869,30.838-55.967,31.366-135.688,7.822-199.446a270.7,270.7,0,0,0-20.06-42.553c-24.972-42.849-60.106-75.943-98.1-97.1C414.65,8.814,360.347.027,307.02,0Z" transform="translate(0)" fill="none"/>
    </clipPath>
    <clipPath id="clip-path-2">
      <rect id="Rectangle_545" data-name="Rectangle 545" width="10.666" height="11.737" fill="none"/>
    </clipPath>
    <clipPath id="clip-path-4">
      <rect id="Rectangle_549" data-name="Rectangle 549" width="53.491" height="15.541" fill="none"/>
    </clipPath>
    <clipPath id="clip-path-5">
      <rect id="Rectangle_550" data-name="Rectangle 550" width="19.224" height="15.152" fill="none"/>
    </clipPath>
    <clipPath id="clip-path-7">
      <rect id="Rectangle_552" data-name="Rectangle 552" width="121.861" height="152.01" fill="none"/>
    </clipPath>
  </defs>
  <g id="Group_1081" data-name="Group 1081" transform="translate(0)" clip-path="url(#clip-path)">
    <path id="Path_2774" data-name="Path 2774" d="M563.859,156.024A247.958,247.958,0,0,0,466.3,68.853C416.7,44.1,362.265,36.481,308.784,36.8c-54.128.318-108.5,8.622-159.082,30.32C67.649,102.311-26.979,184.552,8.96,303,21.745,345.14,48.71,380.191,80.447,404.85S148.552,444.5,185.312,455a493.216,493.216,0,0,0,260.73,3.191c49.063-12.865,99.39-35.824,128.755-83.661,31.128-50.714,32.085-122.717,8.888-180.176a231.409,231.409,0,0,0-19.826-38.326" transform="translate(0.312 10.267)" fill="#d8eefe"/>
    <path id="Path_2775" data-name="Path 2775" d="M93.7,443.059c.037-19.563.276-65.286.13-69.264a331.111,331.111,0,0,1,1.943-49.837l47.2-1.465L167.966,441.21s-.054.65-.154,1.848Z" transform="translate(26.13 90.01)" fill="#313858"/>
    <path id="Path_2776" data-name="Path 2776" d="M138.666,442.819c-10.8-45.654-20.472-118.565-20.472-118.565l110.907-.9s4.137,70.328,6.715,119.466Z" transform="translate(32.989 90.25)" fill="#313858"/>
    <path id="Path_2777" data-name="Path 2777" d="M174.858,87.113s5.2,41.443,6.3,44.014c2.437,5.7,17.389,23.055,17.389,23.055s-45.761,25.1-59.463,25.1-8.9-32.086-8.9-32.086,9.66-6.326,11.578-10.8c2.847-6.65,7.264-36.824,7.264-36.824Z" transform="translate(36.108 24.314)" fill="#fec4ad"/>
    <path id="Path_2778" data-name="Path 2778" d="M141.03,136.53a107.413,107.413,0,0,0,16.489-5.068c.973-.38,1.934-.8,2.893-1.223,2.2-1.229,4.364-2.512,6.474-3.945.779-.528,4.84-3.749,5.1-3.755,1.364-1.369,2.686-2.795,3.979-4.248.11-.124.23-.228.342-.349-1.851-13-4.089-30.829-4.089-30.829l-25.829,12.45s-4.415,30.174-7.264,36.824c-.078.183-.189.374-.293.563.948-.174,1.841-.339,2.2-.42" transform="translate(38.749 24.314)" fill="#f7a281"/>
    <path id="Path_2779" data-name="Path 2779" d="M157.5,385.06c-18.8-.775-40.661-1.871-58.817-6.5.3-56.983,2.455-158.891,4.133-171.048,2.612-18.924,4.725-44.78,4.725-44.78L137.517,135.1l12.4,10.178,52.877-15.664,25.682,20.7c-19.3,75.751,2,151.962,0,229.887-12.458,1.315-20.412,6.948-70.98,4.863" transform="translate(27.542 36.175)" fill="#6eafcf"/>
    <path id="Path_2780" data-name="Path 2780" d="M135.579,133.268s-13.59,47.562-3.949,97.067c2.749,14.117,1.992,61.455,1.992,61.455s1.678,105.2-1.471,115.351-1.665,21.213-21.662,21.054c-18.974-.151-19.4-10.188-19.4-10.188S96.42,299.508,97.3,273.18s-2.835-109.142,2.921-117.7c4.517-6.709,35.358-22.217,35.358-22.217" transform="translate(25.422 37.196)" fill="#fff"/>
    <path id="Path_2781" data-name="Path 2781" d="M133.788,132.425s-5.311,13.938-5.311,20.807-1.859,42.131-1.732,67.166c.061,12.059,1.007,48.357,1.007,48.357s-19.674-77.487-18.243-81.46c1.507-4.179,10.771-15.72,10.771-15.72s-3.782-13.346-5.044-17.094,3.236-7.943,6.589-12.809c2.7-3.923,11.962-9.247,11.962-9.247" transform="translate(30.544 36.961)" fill="#c0e7fa"/>
    <path id="Path_2782" data-name="Path 2782" d="M189.748,128.664s-23.14,48.561-26.171,63.069c-8.754,41.9-12.461,75.6-12.461,75.6s-9.859,129.76-5.208,146.8c5.107,18.717,11.589,21.627,35.351,22.062,25.27.462,49.567-11.031,49.567-11.031s-8.954-100.7-8.954-129.727,13.6-108.327-1.783-140.507c-3.7-7.742-30.34-26.274-30.34-26.274" transform="translate(40.376 35.911)" fill="#fff"/>
    <path id="Path_2783" data-name="Path 2783" d="M190.866,128.769s-25.4,33.772-29.743,44.637-10.658,39.616-11.984,95.21c0,0,8.535-30.9,14.541-43.715,8.606-18.371,14.733-27.775,14.144-30.687-.844-4.183-6.456-8.312-7.9-13.064,0,0,9.454-8.86,20.944-13.745,0,0,5.084-19.679,5.828-26.3s-5.828-12.337-5.828-12.337" transform="translate(41.626 35.94)" fill="#c0e7fa"/>
    <rect id="Rectangle_543" data-name="Rectangle 543" width="36.346" height="5.944" transform="translate(210.27 363.991)" fill="#c0e7fa"/>
    <rect id="Rectangle_544" data-name="Rectangle 544" width="27.593" height="5.944" transform="translate(124.422 363.991)" fill="#c0e7fa"/>
    <path id="Path_2784" data-name="Path 2784" d="M184.977,124.43l-46.241,22.292s15.18,19.066,22.483,18.575c12.042-.811,32.552-35.317,32.552-35.317Z" transform="translate(38.722 34.729)" fill="#5f97b3"/>
    <path id="Path_2785" data-name="Path 2785" d="M142.675,145.277s-10.132,16.278-15.058,14.485c-6.1-2.221-.989-26.131-.989-26.131l11.2-4.022Z" transform="translate(34.783 36.175)" fill="#5f97b3"/>
    <path id="Path_2786" data-name="Path 2786" d="M130.043,56.366c-7.2,6.144-8.886,16.086-7.522,22.76s6.3,21.543,6.3,21.543,5.285-22.8,8.8-30.862,9.308-18.663,9.308-18.663Z" transform="translate(34.075 14.274)" fill="#313131"/>
    <path id="Path_2787" data-name="Path 2787" d="M139.367,54.513c-4.574,2.535-12.435,7.93-12.858,12.034s-2.323,16.1-1.85,23.166-1.039,14.68.052,22.933,7.274,23.729,12.882,27.876c9.039,6.685,21.9-1.935,30.081-7.43,9.524-6.394,13.058-12.03,12.519-29.67,0,0,6.21-32.413,4.46-37.29-4.254-11.852-28.97-6.824-36.034-7.873s-9.253-3.745-9.253-3.745" transform="translate(34.695 15.215)" fill="#fec4ad"/>
    <path id="Path_2788" data-name="Path 2788" d="M182.724,68.793c2.37,3.846-5.385,8.6-6,12.118-1.23,7.03.594,15.233.594,15.233l2.65,6.734s-1.285,14.789-.083,19.638c.991,3.993,27.388-23.981,20.432-53.477-3.011-12.767-14.71-8.987-14.71-8.987-1.94-13.06-7.874-18.381-33.634-17.78s-30.232,21.234-30.232,21.234c4.329,2.795,1.839,10.844,15.343,11.685,24.751,1.539,28.506-8.892,38.3-10.577,2.085-.359,4.969.331,7.34,4.178" transform="translate(33.979 11.786)" fill="#313131"/>
    <path id="Path_2789" data-name="Path 2789" d="M165.328,94.028a28.769,28.769,0,0,1,5.784-9.4c3.15-3.094,7.884-3.163,9.1,1.745,1.476,5.976-3.92,9.781-4.225,13.287-.34,3.936-7.551,7.478-10.175,6.182Z" transform="translate(46.144 23.018)" fill="#fec4ad"/>
    <g id="Group_1066" data-name="Group 1066" transform="translate(213.863 110.473)" opacity="0.52">
      <g id="Group_1065" data-name="Group 1065">
        <g id="Group_1064" data-name="Group 1064" clip-path="url(#clip-path-2)">
          <path id="Path_2790" data-name="Path 2790" d="M173.431,86.845c2.279-1.4,3.973.5,4.331,2.579s-.26.847-1.692-.51-3.5,1.451-3.588,3.411c-.127,2.707-1.555,5.913-3.933,5.775s-1.042-.778-.326-3.57-.13-.04.976-2.713a9.116,9.116,0,0,1,4.233-4.972" transform="translate(-167.197 -86.367)" fill="#965545"/>
        </g>
      </g>
    </g>
    <path id="Path_2791" data-name="Path 2791" d="M181.656,268.368c2.76-30.92,3.012-61.887,5.292-81.3,5.086-43.3,13.739-47.58,13.739-47.58s18.307,6.4,24.946,50.218c1.953,12.9,4.486,41.892,1.053,82.491-2.705,32-7.773,35.962-15.573,39.33-10.637,4.593-30.842,8.519-40.087.161,5.842-20.239,9.372-14.966,10.631-43.323" transform="translate(47.734 38.933)" fill="#fff"/>
    <path id="Path_2792" data-name="Path 2792" d="M200.686,139.492s18.6,8.254,25.238,52.07c1.953,12.9,4.194,40.04.761,80.64-2.705,31.994-7.773,35.961-15.573,39.329-10.637,4.593-30.842,8.519-40.086.161" transform="translate(47.734 38.933)" fill="none" stroke="#c0e7fa" stroke-linecap="round" stroke-linejoin="round" stroke-width="1.843"/>
    <path id="Path_2793" data-name="Path 2793" d="M111.8,261.863c1.512-28.593,5.194-57.078,5.668-75.048,1.053-39.943-2.449-42.581-2.449-42.581s-15.148,7.525-23.351,35.326C88.379,190.7,78.34,225.632,74.657,260.318c-2.979,28.052,1.434,35.637,7.285,39.526,8.648,5.746,36.108,1.577,43.092.683-2.675-19.578-15.714-12.589-13.235-38.664" transform="translate(20.57 40.256)" fill="#fff"/>
    <path id="Path_2794" data-name="Path 2794" d="M115.016,144.234s-15.148,7.525-23.35,35.326c-3.287,11.138-13.326,46.072-17.01,80.758-2.979,28.052,1.434,35.637,7.285,39.526,8.648,5.746,58.213-1,65.2-1.89" transform="translate(20.57 40.256)" fill="none" stroke="#c0e7fa" stroke-linecap="round" stroke-linejoin="round" stroke-width="1.843"/>
    <path id="Path_2795" data-name="Path 2795" d="M104.22,260.873c-.547-31.32,1.074-35.184,3.681-65.195" transform="translate(29.059 54.615)" fill="none" stroke="#c0e7fa" stroke-linecap="round" stroke-linejoin="round" stroke-width="1.843"/>
    <path id="Path_2796" data-name="Path 2796" d="M189.563,255.939q-1.2-41.408.6-79.8" transform="translate(52.776 49.161)" fill="none" stroke="#c0e7fa" stroke-linecap="round" stroke-linejoin="round" stroke-width="1.843"/>
    <path id="Path_2797" data-name="Path 2797" d="M163.044,270.835c11.223,2.084,11.714-23.312,11.714-23.312s-18.177-12.87-19.662-2.565c-1.5,10.436,7.948,25.876,7.948,25.876" transform="translate(43.243 67.253)" fill="#808194"/>
    <path id="Path_2798" data-name="Path 2798" d="M156.789,235.391c5.6.367,16.921-7.653,25.635-.674a90.082,90.082,0,0,1,14.523,14.691s-18.477-1.6-28.692,3.276c-10.161,4.845-20.358,13.5-20.358,13.5Z" transform="translate(41.279 64.712)" fill="#edbda6"/>
    <path id="Path_2799" data-name="Path 2799" d="M179.908,233.166c-2.882,4.908,1.117,24.412,2.072,29.758,0,0-31.663,11.123-58.1,12.355-32.443,1.511-40.37-1.766-46.109-7.978-5.65-6.112,6.728-44,22.116-35.312,9.618,5.43,25.372,8.564,40.865,5.637,15.723-2.971,39.159-4.46,39.159-4.46" transform="translate(21.317 64.39)" fill="#fff"/>
    <path id="Path_2800" data-name="Path 2800" d="M126.7,237.087c15.723-2.971,39.159-4.46,39.159-4.46-2.882,4.909,7.732,36.553,8.689,41.9" transform="translate(35.364 64.927)" fill="none" stroke="#c0e7fa" stroke-linecap="round" stroke-linejoin="round" stroke-width="1.843"/>
    <path id="Path_2801" data-name="Path 2801" d="M139.175,232.649c-5.238-1.023-16.8-10.746-25.933-6.291a77,77,0,0,0-15.367,9.931s20.038,4.832,28.019,11.958c8.144,7.273,15.673,18.379,15.673,18.379Z" transform="translate(27.317 62.854)" fill="#edbda6"/>
    <path id="Path_2802" data-name="Path 2802" d="M132.727,230.924c-7.061,2.426-12.084,9.565-13.307,35.411,0,0,27.141,15.233,46.563,21.984,31.938,9.276,50.514,1.98,59.02-2.467,8.535-4.464,11.324-46.959-6.576-45.348-6.222.559-32.7,9.345-49.856,2.667-15.44-6.008-35.846-12.246-35.846-12.246" transform="translate(33.331 64.452)" fill="#fff"/>
    <path id="Path_2803" data-name="Path 2803" d="M205.7,238.269c-4.165-3.308-8.268-4.028-12.8-5.61s-25.646-2.131-27.86.469c0,0,15.329,10.133,18.13,14.43,1.692,2.866,3.3,6.605,5.159,7.7s3.45.475,4.02-1.048a4.585,4.585,0,0,0-.184-2.333,16.361,16.361,0,0,1,3.269,2.325c2.942,2.7,5.49,3.116,5.555,1.466s-2.856-5.994-2.856-5.994a42.709,42.709,0,0,1,4.2,4.364c1.705,2.143,4.825,2.959,4.756.29s-2.941-7.071-5.394-9.94a15.982,15.982,0,0,0-3.864-3.317c1.137.6,2.952,1.536,4.169,2.054,2.218.945,7.641,4.751,8.858,2.282s-.971-3.819-5.151-7.139" transform="translate(46.062 64.564)" fill="#edbda6"/>
    <path id="Path_2804" data-name="Path 2804" d="M123.786,243.206a91.7,91.7,0,0,0-40.477-12.282" transform="translate(23.252 64.452)" fill="none" stroke="#c0e7fa" stroke-linecap="round" stroke-linejoin="round" stroke-width="1.843"/>
    <path id="Path_2805" data-name="Path 2805" d="M220.514,288.28c-18.917,8.528-44.888,3.184-60.426-2.912-10.367-4.066-19.647-9.551-29.207-14.2-5.911-2.874-7.777-3.663-11.461-6.356,0,0,.165-21.86,7.645-30.847" transform="translate(33.331 65.301)" fill="none" stroke="#c0e7fa" stroke-linecap="round" stroke-linejoin="round" stroke-width="1.843"/>
    <path id="Path_2806" data-name="Path 2806" d="M127.713,229.493c9.69,2.939,38.846,20.468,58.679,18.029" transform="translate(35.645 64.053)" fill="none" stroke="#c0e7fa" stroke-linecap="round" stroke-linejoin="round" stroke-width="1.843"/>
    <path id="Path_2807" data-name="Path 2807" d="M418.024,443.059c-.037-19.563-.276-65.286-.13-69.264a331.118,331.118,0,0,0-1.943-49.837l-47.2-1.465L343.759,441.21s.054.65.154,1.848Z" transform="translate(95.945 90.01)" fill="#313858"/>
    <path id="Path_2808" data-name="Path 2808" d="M382.5,442.819c10.8-45.654,20.472-118.565,20.472-118.565l-110.907-.9s-4.137,70.328-6.715,119.466Z" transform="translate(79.643 90.25)" fill="#313858"/>
    <path id="Path_2809" data-name="Path 2809" d="M335.74,87.113s-5.2,41.443-6.3,44.014c-2.437,5.7-17.389,23.055-17.389,23.055s45.761,25.1,59.462,25.1,8.9-32.086,8.9-32.086-9.66-6.326-11.578-10.8c-2.847-6.65-7.263-36.824-7.263-36.824Z" transform="translate(87.095 24.314)" fill="#fec4ad"/>
    <path id="Path_2810" data-name="Path 2810" d="M362.651,136.53a107.414,107.414,0,0,1-16.489-5.068c-.973-.38-1.934-.8-2.893-1.223-2.2-1.229-4.364-2.512-6.474-3.945-.779-.528-4.84-3.749-5.1-3.755-1.363-1.369-2.686-2.795-3.979-4.248-.11-.124-.23-.228-.341-.349,1.851-13,4.089-30.829,4.089-30.829l25.829,12.45s4.415,30.174,7.264,36.824c.078.183.189.374.293.563-.948-.174-1.841-.339-2.2-.42" transform="translate(91.372 24.314)" fill="#f7a281"/>
    <path id="Path_2811" data-name="Path 2811" d="M366.359,385.06c18.8-.775,40.661-1.871,58.817-6.5-.3-56.983-2.455-158.891-4.133-171.048-2.612-18.924-4.725-44.78-4.725-44.78L386.338,135.1l-12.4,10.178-52.877-15.664-25.682,20.7c19.3,75.751-2,151.962,0,229.887,12.458,1.315,20.412,6.948,70.98,4.863" transform="translate(82.405 36.175)" fill="#313858"/>
    <path id="Path_2812" data-name="Path 2812" d="M369.633,133.268s13.591,47.562,3.949,97.067c-2.749,14.117-1.992,61.455-1.992,61.455s-1.678,105.2,1.471,115.351,1.665,21.213,21.662,21.054c18.974-.151,19.4-10.188,19.4-10.188s-5.335-118.5-6.214-144.827,2.835-109.142-2.923-117.7c-4.515-6.709-35.357-22.217-35.357-22.217" transform="translate(103.167 37.196)" fill="#fff"/>
    <path id="Path_2813" data-name="Path 2813" d="M367.029,132.425s5.311,13.938,5.311,20.807,1.859,42.131,1.732,67.166c-.061,12.059-1.007,48.357-1.007,48.357s19.674-77.487,18.243-81.46c-1.507-4.179-10.771-15.72-10.771-15.72s3.782-13.346,5.043-17.094-3.235-7.943-6.589-12.809c-2.7-3.923-11.962-9.247-11.962-9.247" transform="translate(102.44 36.961)" fill="#c0e7fa"/>
    <path id="Path_2814" data-name="Path 2814" d="M324.556,128.664s23.14,48.561,26.171,63.069c8.754,41.9,12.461,75.6,12.461,75.6s9.859,129.76,5.208,146.8c-5.109,18.717-11.589,21.627-35.351,22.062-25.27.462-49.567-11.031-49.567-11.031s8.954-100.7,8.954-129.727-13.6-108.327,1.783-140.507c3.7-7.742,30.34-26.274,30.34-26.274" transform="translate(79.121 35.911)" fill="#fff"/>
    <path id="Path_2815" data-name="Path 2815" d="M315.026,128.769s25.4,33.772,29.743,44.637,10.658,39.616,11.984,95.21c0,0-8.535-30.9-14.541-43.715-8.606-18.371-14.733-27.775-14.144-30.687.844-4.183,6.456-8.312,7.9-13.064,0,0-9.454-8.86-20.944-13.745,0,0-5.084-19.679-5.828-26.3s5.828-12.337,5.828-12.337" transform="translate(86.283 35.94)" fill="#c0e7fa"/>
    <rect id="Rectangle_546" data-name="Rectangle 546" width="36.346" height="5.944" transform="translate(387.185 363.991)" fill="#c0e7fa"/>
    <rect id="Rectangle_547" data-name="Rectangle 547" width="27.593" height="5.944" transform="translate(481.785 363.991)" fill="#c0e7fa"/>
    <path id="Path_2816" data-name="Path 2816" d="M322.536,124.43l46.24,22.292S353.6,165.789,346.294,165.3c-12.043-.811-32.552-35.317-32.552-35.317Z" transform="translate(87.567 34.729)" fill="#313858"/>
    <path id="Path_2817" data-name="Path 2817" d="M356.767,145.277s10.132,16.278,15.058,14.485c6.1-2.221.989-26.131.989-26.131l-11.2-4.022Z" transform="translate(99.576 36.175)" fill="#313858"/>
    <path id="Path_2818" data-name="Path 2818" d="M333.479,94.028a28.769,28.769,0,0,0-5.784-9.4c-3.15-3.094-7.884-3.163-9.1,1.745-1.476,5.976,3.92,9.781,4.225,13.287.34,3.936,7.551,7.478,10.175,6.182Z" transform="translate(88.851 23.018)" fill="#fec4ad"/>
    <g id="Group_1069" data-name="Group 1069" transform="translate(409.272 110.473)" opacity="0.52">
      <g id="Group_1068" data-name="Group 1068">
        <g id="Group_1067" data-name="Group 1067" clip-path="url(#clip-path-2)">
          <path id="Path_2819" data-name="Path 2819" d="M324.4,86.845c-2.279-1.4-3.973.5-4.331,2.579s.26.847,1.692-.51,3.5,1.451,3.588,3.411c.127,2.707,1.555,5.913,3.933,5.775s1.042-.778.326-3.57.13-.04-.976-2.713a9.116,9.116,0,0,0-4.233-4.972" transform="translate(-319.967 -86.367)" fill="#965545"/>
        </g>
      </g>
    </g>
    <path id="Path_2820" data-name="Path 2820" d="M326.362,268.368c-2.76-30.92-3.012-61.887-5.292-81.3-5.086-43.3-13.739-47.58-13.739-47.58s-18.307,6.4-24.946,50.218c-1.953,12.9-4.486,41.892-1.053,82.491,2.705,32,7.773,35.962,15.573,39.33,10.637,4.593,30.842,8.519,40.086.161-5.84-20.239-9.371-14.966-10.629-43.323" transform="translate(78.049 38.933)" fill="#fff"/>
    <path id="Path_2821" data-name="Path 2821" d="M307.351,139.492s-18.6,8.254-25.238,52.07c-1.953,12.9-4.194,40.04-.761,80.64,2.705,31.994,7.773,35.961,15.573,39.329,10.637,4.593,30.842,8.519,40.086.161" transform="translate(78.029 38.933)" fill="none" stroke="#c0e7fa" stroke-linecap="round" stroke-linejoin="round" stroke-width="1.843"/>
    <path id="Path_2822" data-name="Path 2822" d="M394.906,261.863c-1.512-28.593-5.194-57.078-5.668-75.048-1.053-39.943,2.449-42.581,2.449-42.581s15.148,7.525,23.351,35.326c3.286,11.138,13.324,46.072,17.008,80.758,2.979,28.052-1.434,35.637-7.284,39.526-8.648,5.746-36.108,1.577-43.092.683,2.675-19.578,15.714-12.589,13.235-38.664" transform="translate(106.527 40.256)" fill="#fff"/>
    <path id="Path_2823" data-name="Path 2823" d="M396.511,144.234s15.148,7.525,23.35,35.326c3.287,11.138,13.324,46.072,17.01,80.758,2.979,28.052-1.434,35.637-7.284,39.526-8.648,5.746-58.213-1-65.2-1.89" transform="translate(101.703 40.256)" fill="none" stroke="#c0e7fa" stroke-linecap="round" stroke-linejoin="round" stroke-width="1.843"/>
    <path id="Path_2824" data-name="Path 2824" d="M392.109,260.873c.547-31.32-1.074-35.184-3.681-65.195" transform="translate(108.412 54.615)" fill="none" stroke="#c0e7fa" stroke-linecap="round" stroke-linejoin="round" stroke-width="1.843"/>
    <path id="Path_2825" data-name="Path 2825" d="M306.174,255.939q1.2-41.408-.6-79.8" transform="translate(85.287 49.161)" fill="none" stroke="#c0e7fa" stroke-linecap="round" stroke-linejoin="round" stroke-width="1.843"/>
    <path id="Path_2826" data-name="Path 2826" d="M336.785,270.835c-11.223,2.084-11.714-23.312-11.714-23.312s18.177-12.87,19.662-2.565c1.5,10.436-7.948,25.876-7.948,25.876" transform="translate(90.729 67.253)" fill="#808194"/>
    <path id="Path_2827" data-name="Path 2827" d="M349.417,235.391c-5.6.367-16.921-7.653-25.635-.674a90.081,90.081,0,0,0-14.523,14.691s18.477-1.6,28.692,3.276c10.161,4.845,20.358,13.5,20.358,13.5Z" transform="translate(86.316 64.712)" fill="#edbda6"/>
    <path id="Path_2828" data-name="Path 2828" d="M338.638,233.166c2.882,4.908-1.117,24.412-2.072,29.758,0,0,31.663,11.123,58.1,12.355,32.443,1.511,40.37-1.766,46.109-7.978,5.649-6.112-6.728-44-22.116-35.312-9.618,5.43-25.372,8.564-40.865,5.637-15.723-2.971-39.159-4.46-39.159-4.46" transform="translate(93.937 64.39)" fill="#fff"/>
    <path id="Path_2829" data-name="Path 2829" d="M379.241,237.087c-15.723-2.971-39.159-4.46-39.159-4.46,2.882,4.909-7.732,36.553-8.689,41.9" transform="translate(92.494 64.927)" fill="none" stroke="#c0e7fa" stroke-linecap="round" stroke-linejoin="round" stroke-width="1.843"/>
    <path id="Path_2830" data-name="Path 2830" d="M365.862,232.649c5.238-1.023,16.8-10.746,25.933-6.291a76.949,76.949,0,0,1,15.367,9.931s-20.038,4.832-28.019,11.958c-8.144,7.273-15.673,18.379-15.673,18.379Z" transform="translate(101.447 62.854)" fill="#edbda6"/>
    <path id="Path_2831" data-name="Path 2831" d="M387.272,230.924c7.061,2.426,12.084,9.565,13.308,35.411,0,0-27.143,15.233-46.565,21.984-31.938,9.276-50.514,1.98-59.02-2.467-8.535-4.464-11.323-46.959,6.576-45.348,6.222.559,32.7,9.345,49.857,2.667,15.439-6.008,35.844-12.246,35.844-12.246" transform="translate(80.471 64.452)" fill="#fff"/>
    <path id="Path_2832" data-name="Path 2832" d="M299.878,238.269c4.165-3.308,8.268-4.028,12.8-5.61s25.646-2.131,27.86.469c0,0-15.329,10.133-18.13,14.43-1.692,2.866-3.3,6.605-5.159,7.7s-3.45.475-4.02-1.048a4.586,4.586,0,0,1,.184-2.333,16.361,16.361,0,0,0-3.269,2.325c-2.942,2.7-5.49,3.116-5.555,1.466s2.856-5.994,2.856-5.994a42.709,42.709,0,0,0-4.2,4.364c-1.705,2.143-4.825,2.959-4.756.29s2.941-7.071,5.394-9.94a15.982,15.982,0,0,1,3.864-3.317c-1.137.6-2.952,1.536-4.169,2.054-2.218.945-7.641,4.751-8.858,2.282s.971-3.819,5.151-7.139" transform="translate(82.167 64.564)" fill="#edbda6"/>
    <path id="Path_2833" data-name="Path 2833" d="M380.549,243.206a91.7,91.7,0,0,1,40.477-12.282" transform="translate(106.213 64.452)" fill="none" stroke="#c0e7fa" stroke-linecap="round" stroke-linejoin="round" stroke-width="1.843"/>
    <path id="Path_2834" data-name="Path 2834" d="M297.048,288.28c18.917,8.528,44.888,3.184,60.426-2.912,10.367-4.066,19.647-9.551,29.207-14.2,5.911-2.874,7.777-3.663,11.461-6.356,0,0-.165-21.86-7.645-30.847" transform="translate(82.908 65.301)" fill="none" stroke="#c0e7fa" stroke-linecap="round" stroke-linejoin="round" stroke-width="1.843"/>
    <path id="Path_2835" data-name="Path 2835" d="M380.594,229.493c-9.691,2.939-38.848,20.468-58.679,18.029" transform="translate(89.848 64.053)" fill="none" stroke="#c0e7fa" stroke-linecap="round" stroke-linejoin="round" stroke-width="1.843"/>
    <path id="Path_2836" data-name="Path 2836" d="M217.587,121.047c1.179-21.054,42.107-21.055,59.161-14.765s14.888,23.166,14.888,23.166" transform="translate(60.73 28.642)" fill="none" stroke="#313858" stroke-width="2.369"/>
    <path id="Path_2837" data-name="Path 2837" d="M310.714,132c-3.457,15.383-6.937,29.623-10.334,42.845H221.834c-3.067-14.286-6.523-29.706-10.432-46.4,8.033-4.011,18.727-5.363,22.282-12.47,1.315-2.623,1.667-12.155,1.732-17.117a119.922,119.922,0,0,0-.622-15.147h43.263a207.934,207.934,0,0,0-.436,23.17c.316,5.458,1.089,10.11,2.751,11.672,5.182,4.9,20.179,8.576,30.342,13.449" transform="translate(59.004 23.363)" fill="#edbda6"/>
    <path id="Path_2838" data-name="Path 2838" d="M320.686,469.784c.563-56.627-9.007-109.656-8.771-117.514,1.071-35.486-.814-71.586-.814-71.586L249,258.326l-6.9,139.3s2.5,32.569,5.46,72.159Z" transform="translate(67.573 72.1)" fill="#313858"/>
    <path id="Path_2839" data-name="Path 2839" d="M185.969,469.784h78.37c1.624-13.2,2.705-21.779,2.705-21.779l-9.39-189.679-59.281,28.5s-12.966,126.331-12.4,182.958" transform="translate(51.9 72.1)" fill="#313858"/>
    <path id="Path_2840" data-name="Path 2840" d="M189.275,369.083c50.356-.849,87.951,6.963,137.628.61-1.678-46.378-1.66-113.943,2.346-144.682,5.695-43.7,9.153-78.831,9.153-78.831l-46.939-27.1-11.025,5.849L261.855,127.5l-22.2-.935L226.693,122.4l-34.1,23.781s-7.8,35.129-2.1,78.831c3.958,30.374.973,98.957-1.215,144.072" transform="translate(52.586 33.235)" fill="#6eafcf"/>
    <path id="Path_2841" data-name="Path 2841" d="M229.01,115.97a10.512,10.512,0,0,1-.866,1.417c13.94,1.071,34.987-1.683,44.908-9.018-.037-.492-.075-.986-.1-1.494a208.134,208.134,0,0,1,.437-23.17H230.12a119.628,119.628,0,0,1,.622,15.148c-.064,4.96-.417,14.492-1.732,17.116" transform="translate(63.676 23.363)" fill="#f7a281"/>
    <path id="Path_2842" data-name="Path 2842" d="M180.261,178.439c4.328,44.148,10.194,73.275,9.518,113.833-.449,26.99-6.339,148.264-6.339,148.264s36.926-.513,65.459-12.956c19.211-8.377,16.667-66.9,15.565-131.226-.824-48.043-35.819-97.172-38.775-129.53-1.237-13.521,3.524-51.8,3.524-51.8l-31.765,15.851Z" transform="translate(50.312 32.104)" fill="#fff"/>
    <path id="Path_2843" data-name="Path 2843" d="M324.678,167.952c-1.268,40.557-.212,59.572-1.026,67.185-2.813,26.31-5.313,41.066-5.18,63.784.28,47.974,10.632,139.918,10.632,139.918s-53.192,4.442-72.1-11.83c-21.2-18.243-13.5-128.645-9.968-148.81,7.439-42.526,24.531-54.065,30.714-95.921a287.683,287.683,0,0,0,1.415-69.118l39.045,16.91Z" transform="translate(67.745 31.583)" fill="#fff"/>
    <path id="Path_2844" data-name="Path 2844" d="M219.162,117.311l7.089-5.5a70.447,70.447,0,0,0,7.136,6.4c13.344,9.52,20.722,10.371,20.722,10.371s-13.64,10.915-19.994,10.045c-11.683-1.6-14.953-21.315-14.953-21.315" transform="translate(61.169 31.206)" fill="#5f97b3"/>
    <path id="Path_2845" data-name="Path 2845" d="M278.512,116.167l-4.527-5.23a100.464,100.464,0,0,1-8.594,7.877C252.294,128.167,245.053,129,245.053,129s13.388,10.724,19.623,9.868c11.467-1.572,13.836-22.7,13.836-22.7" transform="translate(68.396 30.963)" fill="#5f97b3"/>
    <path id="Path_2846" data-name="Path 2846" d="M261.337,271.067a4.512,4.512,0,1,1-4.513-4.513,4.513,4.513,0,0,1,4.513,4.513" transform="translate(70.422 74.397)" fill="#c0e7fa"/>
    <path id="Path_2847" data-name="Path 2847" d="M261.861,307.774a4.512,4.512,0,1,1-4.513-4.513,4.513,4.513,0,0,1,4.513,4.513" transform="translate(70.568 84.642)" fill="#c0e7fa"/>
    <path id="Path_2848" data-name="Path 2848" d="M232.7,111.721s-3.965,17.625,2.236,47.553c3.911,18.877,5.416,31.5,9.367,46.345,10.438,39.215,10.933,69.045,10.933,69.045L211.322,157.753l7.537-9.284L203.8,141.2s12.066-21.4,17.872-25.548a19.351,19.351,0,0,1,11.035-3.931" transform="translate(56.881 31.182)" fill="#c0e7fa"/>
    <path id="Path_2849" data-name="Path 2849" d="M273.77,110.937s2.856,18-2.95,49.414-12.814,60.563-15.926,71.352c-8.624,29.9-9.065,45.644-9.065,45.644s41.6-110.813,49.78-124.778l-8.291-6.31,9.45-7.256s-8.983-19.644-14.789-23.794-8.209-4.272-8.209-4.272" transform="translate(68.612 30.963)" fill="#c0e7fa"/>
    <path id="Path_2850" data-name="Path 2850" d="M307.387,126.379s16.375,7.6,24.277,52.809c2.221,12.707,9.23,39.847,5.954,77.042-2.466,28.012-7.451,31.759-15.173,35.207-10.585,4.725-31.039,9.7-40.966,3.26" transform="translate(78.563 35.273)" fill="none" stroke="#c0e7fa" stroke-linecap="round" stroke-linejoin="round" stroke-width="1.843"/>
    <path id="Path_2851" data-name="Path 2851" d="M213.131,255.1c-1.764-29.008-.82-59.192-2.593-78.831-4.12-45.667-9.194-48.854-9.194-48.854s-19.363,8.689-25.912,41c-2.562,12.643-10.026,51.2-9.039,87.522.762,28.11,7.474,35.077,15.3,38.29,11.374,4.673,44.162.056,52.225-1.362-5.258-18.194-20.556-12.242-20.783-37.766" transform="translate(46.416 35.563)" fill="#fff"/>
    <path id="Path_2852" data-name="Path 2852" d="M201.344,127.418s-19.362,8.689-25.911,41c-2.562,12.643-10.027,51.2-9.041,87.522.764,28.11,7.475,35.077,15.3,38.29,11.375,4.673,44.164.056,52.226-1.362" transform="translate(46.416 35.563)" fill="none" stroke="#c0e7fa" stroke-linecap="round" stroke-linejoin="round" stroke-width="1.843"/>
    <path id="Path_2853" data-name="Path 2853" d="M205.625,252.3c-4.491-30.511-3-34.46-3.571-65.333" transform="translate(56.394 52.185)" fill="none" stroke="#c0e7fa" stroke-linecap="round" stroke-linejoin="round" stroke-width="1.843"/>
    <path id="Path_2854" data-name="Path 2854" d="M299.907,241.868q-2.527-38.392-1.823-76.906" transform="translate(83.154 46.042)" fill="none" stroke="#c0e7fa" stroke-linecap="round" stroke-linejoin="round" stroke-width="1.843"/>
    <path id="Path_2855" data-name="Path 2855" d="M272.909,256c12.026,1,11.362-21.765,11.362-21.765s-20.519-10.78-21.509-1.106S272.909,256,272.909,256" transform="translate(73.321 63.943)" fill="#808194"/>
    <path id="Path_2856" data-name="Path 2856" d="M263.606,224.385c6.222.024,18.214-8.121,28.011-2.068a87.625,87.625,0,0,1,16,12.585s-19.66-.308-30.421,4.783-21.353,13.663-21.353,13.663Z" transform="translate(71.407 61.425)" fill="#edbda6"/>
    <path id="Path_2857" data-name="Path 2857" d="M290.3,221.433c-2.884,4.772,10.518,32.974,11.819,37.648,0,0-30.531,5.771-60.1,7.043-34.254,1.472-59.2-.051-67.078-5.427s1.713-43.51,22.04-35.747c12.375,4.726,31.5,6.76,49.294,2.993s44.02-6.509,44.02-6.509" transform="translate(48.06 61.803)" fill="#fff"/>
    <path id="Path_2858" data-name="Path 2858" d="M230.11,227.941c17.8-3.767,44.02-6.509,44.02-6.509-2.884,4.774,10.518,32.974,11.819,37.648" transform="translate(64.225 61.803)" fill="none" stroke="#c0e7fa" stroke-linecap="round" stroke-linejoin="round" stroke-width="1.843"/>
    <path id="Path_2859" data-name="Path 2859" d="M244.239,222.772c-6.182-.689-20.814-9.561-31.24-4.675a87.624,87.624,0,0,0-17.338,10.665s24.577,3.441,34.68,9.733,19.643,16.025,19.643,16.025Z" transform="translate(54.61 60.464)" fill="#edbda6"/>
    <path id="Path_2860" data-name="Path 2860" d="M235.878,221.358c-7.975,2.746-13.121,9.9-11.935,34.262a307.651,307.651,0,0,0,53.165,13.621c33.858,5.4,52.484.027,60.929-4.409s10.8-41.806-7.6-39.366c-6.472.858-34.189,10.432-53.177,5.357-17.574-4.7-41.385-9.465-41.385-9.465" transform="translate(62.456 61.782)" fill="#fff"/>
    <path id="Path_2861" data-name="Path 2861" d="M304.35,223.353c-8.163,1.347-15.041,2.447-20.808,3.336l.084.633a25.434,25.434,0,0,1-.063,2.937c4.743-.153,10.194-.37,13.34-1.151a61.619,61.619,0,0,0,7.419-2.026c2.63-1.068,4.381-4.446.028-3.729" transform="translate(79.138 62.311)" fill="#edbda6"/>
    <path id="Path_2862" data-name="Path 2862" d="M230.094,233.325a140.388,140.388,0,0,0-51.018-7.359" transform="translate(49.981 63.036)" fill="none" stroke="#c0e7fa" stroke-linecap="round" stroke-linejoin="round" stroke-width="1.843"/>
    <path id="Path_2863" data-name="Path 2863" d="M183.98,260.256c28.678,1.271,56.34-3.484,82.275-5.436" transform="translate(51.35 71.122)" fill="none" stroke="#c0e7fa" stroke-linecap="round" stroke-linejoin="round" stroke-width="1.843"/>
    <path id="Path_2864" data-name="Path 2864" d="M339.029,263.475c-18.385,9.224-45.293,7.933-62.171,4.684-11.52-2.217-22.24-5.839-33.369-8.761-6.987-1.834-11.843-2.982-19.125-4.257,0,0-3.266-20.04,4-29.29" transform="translate(62.417 63.036)" fill="none" stroke="#c0e7fa" stroke-linecap="round" stroke-linejoin="round" stroke-width="1.843"/>
    <path id="Path_2865" data-name="Path 2865" d="M233.639,221.433c11.548,1.793,46.071,14.9,67.161,10.638" transform="translate(65.21 61.803)" fill="none" stroke="#c0e7fa" stroke-linecap="round" stroke-linejoin="round" stroke-width="1.843"/>
    <path id="Path_2866" data-name="Path 2866" d="M266.274,75.076s-.526-11.4,9.024-11.1c6.094.187,6.566,5.773,1.818,12.979-2,3.035-2.2,9.9-4.683,12.1-3.017,2.682-5.544-1.457-6.461-3.344-1.518-3.121.3-10.636.3-10.636" transform="translate(74.066 17.853)" fill="#edbda6"/>
    <path id="Path_2867" data-name="Path 2867" d="M270.851,68.77c3.376-1.875,7.126-1.5,4.876,2.25s-3.75,4.876-3.564,9a3.44,3.44,0,0,1-3.187,3.938Z" transform="translate(75.073 18.887)" fill="#e7a699"/>
    <path id="Path_2868" data-name="Path 2868" d="M228.923,75.076s.526-11.4-9.023-11.1c-6.095.187-6.567,5.773-1.819,12.979,2,3.035,2.2,9.9,4.683,12.1,3.017,2.682,5.544-1.457,6.461-3.344,1.518-3.121-.3-10.636-.3-10.636" transform="translate(59.974 17.853)" fill="#edbda6"/>
    <path id="Path_2869" data-name="Path 2869" d="M223.52,68.77c-3.377-1.875-7.128-1.5-4.877,2.25s3.75,4.876,3.565,9a3.439,3.439,0,0,0,3.186,3.938Z" transform="translate(60.834 18.887)" fill="#e7a699"/>
    <path id="Path_2870" data-name="Path 2870" d="M289.03,57.035c-.234,3.7-.967,6.1-1.928,11.594-.226,1.323-.476,2.835-.725,4.588C284.4,86.9,281.9,105.5,280.822,108.273c-1.784,4.6-11.555,12.054-16.2,14.784s-16.311,2.168-20.952-.56-15.138-9.621-16.921-14.224c-1.1-2.827-3.689-21.965-5.677-35.871-.226-1.587-.445-2.955-.657-4.165-.936-5.418-1.655-7.558-1.882-11.2-.711-11.557,12.3-28.365,35.25-28.365,27.149,0,35.961,16.809,35.243,28.365" transform="translate(60.987 8.002)" fill="#edbda6"/>
    <g id="Group_1072" data-name="Group 1072" transform="translate(288.854 40.797)" style="mix-blend-mode: multiply;isolation: isolate">
      <g id="Group_1071" data-name="Group 1071">
        <g id="Group_1070" data-name="Group 1070" clip-path="url(#clip-path-4)">
          <path id="Path_2871" data-name="Path 2871" d="M225.825,47.436s18.754-4.876,46.135-3.376l7.356-4.927A65.776,65.776,0,0,0,249.359,31.9c-16.969.125-23.534,15.54-23.534,15.54" transform="translate(-225.825 -31.895)" fill="#e1d2e3"/>
        </g>
      </g>
    </g>
    <path id="Path_2872" data-name="Path 2872" d="M288.492,67.8c-.372,1.04-.711,1.972-1.008,2.782l.12.18c-.226,1.323-.476,2.834-.725,4.588-.481,3.331-.991,6.952-1.507,10.565l-3.853,4.73c1.787-5.414,2.957-16.562,3.532-20.187l-.021-.043a45.013,45.013,0,0,1-4.107-17.845l-1.429-9.222-6.155.272c-.885-.907-14.24-.418-25.842.472-14.716,1.135-19.129,6.376-19.129,6.376C227.512,56,226.409,64.4,223.6,69.243l-.16.274-.215.374c.686,3.486.986,13.86,3.054,19.575l-3.09-3.548c-.555-3.895-1.105-7.812-1.616-11.381-.073-.509-.143-.959-.214-1.425l-.02.035s-.62-2.109-1.481-5.1c-.636-2.206-2.206-13.506-2.584-15.1q-.182-.748-.319-1.451c-1.351-7.085,1.532-33.4,42.072-30.2.485.038.959.1,1.436.166,13.363,1.761,19.491,8.057,19.491,8.057l4.573,8.062c7.6,1.135,8.41,5.533,6.665,14.194-.077.379-1.942,13.892-2.705,16.031" transform="translate(60.485 5.867)" fill="#422129"/>
    <path id="Path_2873" data-name="Path 2873" d="M224.432,118.877l.228,2.4-.114-1.2.115,1.2c-.111.012-14.751.7-21.094,9.783-6.9,9.873-17.809,38.053-14.978,43.864,3.131,6.425,16.742,12.282,16.879,12.341l-.944,2.217c-.595-.253-14.581-6.278-18.1-13.5-3.7-7.6,8.943-37.39,15.169-46.3,7-10.012,22.34-10.753,22.84-10.8" transform="translate(51.846 33.179)" fill="#313858"/>
    <path id="Path_2874" data-name="Path 2874" d="M192.949,149.567c2.948-7.377,6.438-14.472,9.258-18.509,6.343-9.078,20.982-9.771,21.094-9.781l-.115-1.2-.114-1.2c-.5.049-15.844.789-22.841,10.8-2.627,3.761-6.4,11.243-9.6,19.206q1.161.336,2.318.683" transform="translate(53.206 33.179)" fill="#313858"/>
    <path id="Path_2875" data-name="Path 2875" d="M192.949,149.567c2.948-7.377,6.438-14.472,9.258-18.509,6.343-9.078,20.982-9.771,21.094-9.781l-.115-1.2-.114-1.2c-.5.049-15.844.789-22.841,10.8-2.627,3.761-6.4,11.243-9.6,19.206Q191.792,149.219,192.949,149.567Z" transform="translate(53.206 33.179)" fill="none" stroke="#313858" stroke-linecap="round" stroke-linejoin="round" stroke-width="0.554"/>
    <path id="Path_2876" data-name="Path 2876" d="M200.537,170.671l3.514-.049a3.19,3.19,0,1,1-.876,6.245l-3.365-1.014a.572.572,0,0,1-.4-.629l.569-4.059a.574.574,0,0,1,.56-.494" transform="translate(55.654 47.621)" fill="#313858"/>
    <path id="Path_2877" data-name="Path 2877" d="M217.983,119.13l-.879,2.244.439-1.122-.44,1.122c.1.041,13.987,4.737,17.586,15.21,3.914,11.392,6.645,41.485,2.324,46.292-4.779,5.316-19.476,7.2-19.624,7.218l.3,2.392c.641-.079,15.744-2.021,21.117-8,5.652-6.287,1.7-38.406-1.837-48.687-3.969-11.55-18.516-16.488-18.984-16.671" transform="translate(60.595 33.25)" fill="#313858"/>
    <path id="Path_2878" data-name="Path 2878" d="M238.495,156.925c-.8-7.9-2.205-15.684-3.805-20.342-3.6-10.473-17.483-15.17-17.586-15.211l.441-1.12.439-1.122c.468.183,15.015,5.12,18.986,16.669,1.49,4.34,3.055,12.571,3.942,21.107q-1.209,0-2.416.019" transform="translate(60.595 33.25)" fill="#313858"/>
    <path id="Path_2879" data-name="Path 2879" d="M238.495,156.925c-.8-7.9-2.205-15.684-3.805-20.342-3.6-10.473-17.483-15.17-17.586-15.211l.441-1.12.439-1.122c.468.183,15.015,5.12,18.986,16.669,1.49,4.34,3.055,12.571,3.942,21.107Q239.7,156.91,238.495,156.925Z" transform="translate(60.595 33.25)" fill="none" stroke="#313858" stroke-linecap="round" stroke-linejoin="round" stroke-width="0.554"/>
    <path id="Path_2880" data-name="Path 2880" d="M221.163,173.607l-3.267-.984a3.231,3.231,0,0,0-3.671,1.576,3.2,3.2,0,0,0,2.9,4.635l3.312-.046a.572.572,0,0,0,.56-.494l.57-4.059a.575.575,0,0,0-.4-.629" transform="translate(59.695 48.147)" fill="#313858"/>
    <path id="Path_2881" data-name="Path 2881" d="M214.222,123.325l3.078-.008a.885.885,0,0,1,.247.035l2.957.854a.88.88,0,0,0,1.05-.489l.466-1.049a.881.881,0,0,0-.119-.911l-.134-.166a5.28,5.28,0,0,1-1.161-3.044l-.174-3.454a.882.882,0,0,0-.816-.834l-.849-.063a.88.88,0,0,1-.116-.015l-.834-.175a.883.883,0,0,0-1.014.578l-1.118,3.272a5.28,5.28,0,0,1-1.954,2.607l-.175.123a.881.881,0,0,0-.365.843l.159,1.136a.882.882,0,0,0,.875.76" transform="translate(59.5 31.815)" fill="#313858"/>
    <g id="Group_1075" data-name="Group 1075" transform="translate(320.558 76.633)" opacity="0.3">
      <g id="Group_1074" data-name="Group 1074">
        <g id="Group_1073" data-name="Group 1073" clip-path="url(#clip-path-5)">
          <path id="Path_2882" data-name="Path 2882" d="M269.216,67.658c-.924,4.091-4.529,7.4-9.85,7.406-7.318,0-7.52-4.763-8.209-7.576a12.708,12.708,0,0,1-.37-5.7c.668-1.653,2.59-1.69,8.359-1.806s8.946-.192,9.877.657,1.147,2.791.193,7.02" transform="translate(-250.611 -59.911)" fill="#fff"/>
        </g>
      </g>
    </g>
    <g id="Group_1078" data-name="Group 1078" transform="translate(289.646 76.633)" opacity="0.3">
      <g id="Group_1077" data-name="Group 1077">
        <g id="Group_1076" data-name="Group 1076" clip-path="url(#clip-path-5)">
          <path id="Path_2883" data-name="Path 2883" d="M227.256,60.638c.931-.849,4.11-.774,9.877-.657s7.693.155,8.359,1.806a12.72,12.72,0,0,1-.368,5.7c-.691,2.814-.893,7.58-8.211,7.576-5.321,0-8.927-3.315-9.85-7.406-.954-4.229-.738-6.169.193-7.02" transform="translate(-226.444 -59.911)" fill="#fff"/>
        </g>
      </g>
    </g>
    <path id="Path_2884" data-name="Path 2884" d="M283.518,60.187c-.123-1.262-6.385-1.827-10.878-1.914s-12.089-.319-14.785.609c-2.392.822-2,1.709-5.026,1.709-2.653,0-2.777-.886-5.168-1.709-2.7-.927-10.292-.7-14.785-.609s-10.755.651-10.879,1.914a7.257,7.257,0,0,0,.249,2.444c.2.691,2.437,1.065,2.827,1.251.847.4.582,3.171,1.912,6.183,1.718,3.888,5.734,6.944,13.846,6.265,7.446-.624,7.3-8.5,8.227-10.618.793-1.811.384-2.4,3.758-2.4,3.314,0,2.845.587,3.638,2.4.927,2.118.783,9.994,8.228,10.618,8.111.679,11.946-2.329,13.663-6.218,1.33-3.012,1.247-5.826,2.094-6.231.391-.185,2.632-.56,2.827-1.251a7.224,7.224,0,0,0,.249-2.444m-37.148,7.782c-.691,2.813-.892,7.58-8.211,7.576-5.321,0-8.926-3.315-9.849-7.406-.955-4.229-.739-6.169.192-7.02s4.11-.774,9.877-.657,7.693.153,8.36,1.806a12.728,12.728,0,0,1-.37,5.7m30.837.17c-.924,4.091-4.529,7.4-9.85,7.406-7.318,0-7.52-4.763-8.209-7.576a12.709,12.709,0,0,1-.37-5.7c.668-1.653,2.59-1.69,8.359-1.806s8.946-.192,9.877.657,1.147,2.791.193,7.02" transform="translate(61.955 16.239)" fill="#133a50"/>
    <path id="Path_2885" data-name="Path 2885" d="M274.5,112.945c11.989,29.921-6.264,71.23-6.264,71.23" transform="translate(74.867 31.524)" fill="none" stroke="#313858" stroke-width="2.369"/>
    <path id="Path_2886" data-name="Path 2886" d="M276.748,174.958a8.441,8.441,0,1,1-8.441-8.44,8.441,8.441,0,0,1,8.441,8.44" transform="translate(72.53 46.476)" fill="#fff"/>
    <path id="Path_2887" data-name="Path 2887" d="M276.748,174.958a8.441,8.441,0,1,1-8.441-8.44A8.441,8.441,0,0,1,276.748,174.958Z" transform="translate(72.53 46.476)" fill="none" stroke="#313858" stroke-width="2.28"/>
    <line id="Line_5" data-name="Line 5" y2="93.179" transform="translate(314.776 324.89)" fill="none" stroke="#c0e7fa" stroke-linecap="round" stroke-linejoin="round" stroke-width="1.843"/>
    <path id="Path_2888" data-name="Path 2888" d="M60.053,57.994c-.23,6.472-.342,9.705-1.3,13.8C54.228,91.027,37.6,110.556,24,108.033a15.356,15.356,0,0,1-8.834-5.483c-7-9.513,5.74-22.436,6.921-41.328C24.23,27.039,9.757,9.568,18.158,2.465c7.151-6.045,24.91.454,34.578,10.972,9.1,9.9,8.011,24.841,7.317,44.556" transform="translate(429.958 53.398)" fill="#313858"/>
    <path id="Path_2889" data-name="Path 2889" d="M375.767,54.513c5.214,2.891,14.179,9.043,14.661,13.721s2.649,18.361,2.109,26.415,1.183,16.739-.06,26.149-8.3,27.056-14.69,31.785c-10.306,7.622-24.965-2.207-34.3-8.472-10.86-7.291-14.888-13.717-14.274-33.831,0,0-7.081-36.958-5.084-42.519,4.851-13.514,33.032-7.781,41.085-8.977s10.552-4.27,10.552-4.27" transform="translate(94.974 1.825)" fill="#fec4ad"/>
    <g id="Group_1080" data-name="Group 1080" transform="translate(371.961 49.036)">
      <g id="Group_1079" data-name="Group 1079" transform="translate(0 0)" clip-path="url(#clip-path-7)">
        <path id="Path_2890" data-name="Path 2890" d="M75.335,4.246c.794.6,7.078,5.446,6.212,10.364-1.354,7.711-18.286,6.5-27.279,19.341A27.644,27.644,0,0,0,49.777,45a102.1,102.1,0,0,0-.838,10.381,109.759,109.759,0,0,0,9.82,47.991q-10.717-1.9-21.417-3.8c-5.157-.91-8.4-3.7-11.053-5.179C17.7,89.574,10.712,85.661,6.8,79.194,1.9,71.072,3.723,62.04,5.772,51.909,7.7,42.372,10.49,28.527,22,17.025,36.8,2.231,62.644-5.3,75.335,4.246" transform="translate(16.705 -0.002)" fill="#313858"/>
        <path id="Path_2891" data-name="Path 2891" d="M14.925,3.119C14.131,6.133,29.308,8,39.444,20.561c11.474,14.222,8.732,32.53,11.225,32.464,1.871-.05,4.508-10.359,2.765-20.895-.211-1.277-4.18-23.26-21.761-29.355C24.2.182,15.507.9,14.925,3.119" transform="translate(65.763 1.258)" fill="#313858"/>
        <path id="Path_2892" data-name="Path 2892" d="M47.352,24.393a27.188,27.188,0,0,0,6.262,4.2c4.324,2.093,14.614,4.682,17.09,4.787.405.666,1.021,1.71,1.732,3,3.847,7.006-.12,9.191-.792,12.882-.766,4.213-5.29,6.617-8.638,8.4-11.186,5.957-22.855,4.419-35.8,2.537C16.731,58.672,11.5,57.911,8.787,54.786c-6.106-7.045-2.082-18.4,3.68-34.651.366-1.038,1.1-2.975,2.765-3.569,2.853-1.016,6.317,2.676,8.632,4.491,3.769,2.937,10.509,5.573,23.487,3.336" transform="translate(26.119 74.601)" fill="#313858"/>
        <path id="Path_2893" data-name="Path 2893" d="M99.589,20.956,117.357,34.43a21.862,21.862,0,0,1-1.343,4.84c-5.667,13.855-24.641,17.786-32.193,19.354-13.361,2.768-28.891.075-59.409-5.419C5.685,49.827,11.195,46.8,11.189,44.211c0-2.333-6.995-2.484,2.683-6.876A94,94,0,0,0,36.486,22.821Z" transform="translate(-0.124 85.545)" fill="#313858"/>
      </g>
    </g>
    <path id="Path_2894" data-name="Path 2894" d="M290.88,255.393c1.764-29.008.82-59.192,2.591-78.831,4.121-45.667,13.915-50.183,13.915-50.183s16.375,7.6,24.277,52.809c2.221,12.708,9.23,39.847,5.954,77.043-2.466,28.011-7.451,31.758-15.173,35.206-10.585,4.726-31.039,9.7-40.966,3.262,5.258-18.2,9.174-13.782,9.4-39.306" transform="translate(78.563 35.273)" fill="#fff"/>
    <path id="Path_2895" data-name="Path 2895" d="M271.341,224.429c6.206-1.818,17.042-5.714,21.488-8.147s7.878-5.05,13.493-6.206,8.237-1.974,9.4.344-7.873,4.01-10.012,4.474-5.523,3.966-5.523,3.966,7.219-1.115,11.227-1.273,6.736-.764,8.919.7-.6,3.259-3.488,3.29a18.537,18.537,0,0,0-6.324,1.639s5.084.357,6.362,1.325-.492,2.432-4.662,3.052a49.841,49.841,0,0,0-6.792,1.439s-1.467,3.159-6.91,2.8-27.18-7.4-27.18-7.4" transform="translate(75.733 58.316)" fill="#edbda6"/>
  </g>
</svg>
