<svg xmlns="http://www.w3.org/2000/svg" xmlns:xlink="http://www.w3.org/1999/xlink" width="215.631" height="212.826" viewBox="0 0 215.631 212.826">
  <defs>
    <filter id="Ellipse_21" x="0" y="0" width="212.826" height="212.826" filterUnits="userSpaceOnUse">
      <feOffset dy="18" input="SourceAlpha"/>
      <feGaussianBlur stdDeviation="13" result="blur"/>
      <feFlood flood-color="#136fb7" flood-opacity="0.188"/>
      <feComposite operator="in" in2="blur"/>
      <feComposite in="SourceGraphic"/>
    </filter>
    <clipPath id="clip-path">
      <path id="Union_1" data-name="Union 1" d="M0,86.329A67.654,67.654,0,0,1,1.655,71.415V0H176.631L134.793,84.2q.033,1.062.033,2.131A67.413,67.413,0,0,1,0,86.329Z" transform="translate(0)" fill="#98cbf3"/>
    </clipPath>
  </defs>
  <g id="Group_953" data-name="Group 953" transform="translate(9965.5 -2653.358)">
    <g transform="matrix(1, 0, 0, 1, -9965.5, 2653.36)" filter="url(#Ellipse_21)">
      <circle id="Ellipse_21-2" data-name="Ellipse 21" cx="67.413" cy="67.413" r="67.413" transform="translate(39 21)" fill="#0ac5bb" opacity="0.25"/>
    </g>
    <g id="Mask_Group_15" data-name="Mask Group 15" transform="translate(-9926.5 2655.442)" clip-path="url(#clip-path)">
      <path id="Path_2637" data-name="Path 2637" d="M414.647,90.166a1.9,1.9,0,0,1,1.918-1.918h52.45a1.986,1.986,0,0,1,1.466.677,1.94,1.94,0,0,1-.112,2.707,1.874,1.874,0,0,1-1.354.564H416.452a1.984,1.984,0,0,1-1.8-2.03m5.64-7.107a1.9,1.9,0,0,1,1.916-1.918h38.578a2.373,2.373,0,0,1,1.466.565,1.942,1.942,0,0,1-.114,2.707,1.868,1.868,0,0,1-1.353.564H422.2a1.9,1.9,0,0,1-1.916-1.918m84.034,1.918a41.033,41.033,0,0,1-15.452-3.836c-.451-.226-.791-.338-1.242-.564-1.465-.789-2.819-1.579-4.172-2.481s-2.6-1.918-3.836-2.933a43.244,43.244,0,0,1-6.542-7.107,39.817,39.817,0,0,1-7.22-17.822c-.226-1.579-.338-3.159-.451-4.851V37.94a1.918,1.918,0,0,1,3.836,0v7.444c0,1.466.226,2.933.338,4.4A37.718,37.718,0,0,0,476.122,65.8a35.812,35.812,0,0,0,5.978,6.429c1.128.9,2.256,1.8,3.5,2.707a42.48,42.48,0,0,0,3.836,2.256,38.616,38.616,0,0,0,15,4.061,1.928,1.928,0,0,1,1.917,2.03,1.9,1.9,0,0,1-2.03,1.692m0,7.107A48.058,48.058,0,0,1,487.4,88.248c-1.017-.451-1.918-.9-2.933-1.353-1.129-.565-2.144-1.129-3.272-1.806l-1.691-1.015c-1.354-.9-2.595-1.8-3.836-2.819a3.017,3.017,0,0,0-.677-.565,48.838,48.838,0,0,1-7.67-8.346,47.252,47.252,0,0,1-8.573-20.868,47.78,47.78,0,0,1-.45-5.64v-11.5a1.917,1.917,0,1,1,3.834,0V45.61a40.232,40.232,0,0,0,.451,5.189,43.986,43.986,0,0,0,14.889,26.846c1.354,1.129,2.707,2.144,4.174,3.159l.565.338a44.5,44.5,0,0,0,3.948,2.256c1.127.565,2.368,1.129,3.609,1.692a44.4,44.4,0,0,0,14.665,3.159,1.92,1.92,0,1,1-.113,3.836m-94.3,5.189a1.9,1.9,0,0,1,1.918-1.918h73.882c-1.579-.677-3.159-1.354-4.625-2.144-.676-.338-1.353-.677-1.917-1.015-1.241-.677-2.481-1.466-3.722-2.256-.791-.564-1.58-1.129-2.257-1.692-1.015-.789-1.916-1.466-2.931-2.369-.339-.338-.677-.564-1.016-.9a43.561,43.561,0,0,1-3.948-3.948,50.375,50.375,0,0,1-3.834-4.737,56.3,56.3,0,0,1-9.814-24.027,41.549,41.549,0,0,1-.564-6.542V31.173a1.917,1.917,0,1,1,3.834,0V45.724a55.526,55.526,0,0,0,.565,6.09,51.439,51.439,0,0,0,9.137,22.221,41.142,41.142,0,0,0,6.2,7.107c.677.677,1.353,1.241,2.03,1.806.789.676,1.692,1.353,2.6,2.03a27.509,27.509,0,0,0,2.256,1.579c.9.565,1.692,1.129,2.594,1.58.9.564,1.806,1.015,2.707,1.466a48.089,48.089,0,0,0,5.528,2.368,51.8,51.8,0,0,0,16.016,3.159h.226a1.916,1.916,0,0,1,1.58,1.579v.9c0,.112-.113.338-.113.451v.112c0,.114-.112.226-.226.339l-.112.112c0,.114-.112.114-.226.226s-.112.112-.226.112c-.112.114-.226.114-.338.226A.347.347,0,0,0,505,99.3a.856.856,0,0,0-.451.112H411.94a2.1,2.1,0,0,1-1.918-2.142m10.6-95.427a24.817,24.817,0,0,0-24.816,24.816V101.67a24.816,24.816,0,0,0,24.816,24.816h75.011a24.816,24.816,0,0,0,24.815-24.816V26.661A24.815,24.815,0,0,0,495.636,1.845Z" transform="translate(-390.716 8.283)" fill="#0ac5bb"/>
    </g>
  </g>
</svg>
