<svg width="398" height="77" viewBox="0 0 398 77" fill="none" xmlns="http://www.w3.org/2000/svg">
<path d="M336.369 52.6738C336.369 52.0201 336.891 51.5629 337.48 51.5629H367.86C368.187 51.5629 368.448 51.6937 368.709 51.9551C369.102 52.4123 369.102 53.131 368.644 53.5232C368.448 53.7189 368.187 53.8496 367.86 53.8496H337.414C336.826 53.7847 336.369 53.3267 336.369 52.6738ZM339.636 48.5576C339.636 47.9038 340.158 47.4467 340.746 47.4467H363.091C363.417 47.4467 363.679 47.5774 363.94 47.7739C364.332 48.2311 364.332 48.9498 363.874 49.342C363.679 49.5377 363.417 49.6684 363.091 49.6684H340.746C340.158 49.6684 339.636 49.2113 339.636 48.5576ZM388.31 49.6684C385.239 49.5377 382.168 48.7533 379.359 47.4467C379.098 47.3159 378.901 47.251 378.64 47.1202C377.791 46.6631 377.007 46.2059 376.223 45.6829C375.439 45.16 374.72 44.572 374.002 43.9841C372.564 42.7425 371.323 41.371 370.212 39.8679C367.991 36.7975 366.553 33.2692 366.03 29.5451C365.9 28.6308 365.835 27.7156 365.769 26.7355V26.0168V22.4235C365.769 21.7706 366.292 21.3126 366.88 21.3126C367.534 21.3126 367.991 21.8356 367.991 22.4235V25.2981V26.0826V26.7355C367.991 27.5849 368.122 28.4343 368.187 29.2837C368.709 32.6163 370.016 35.8174 371.976 38.5613C372.956 39.9336 374.132 41.1744 375.439 42.2853C376.093 42.8083 376.745 43.3304 377.464 43.8534C378.183 44.3106 378.901 44.7686 379.686 45.16C382.365 46.5323 385.37 47.3159 388.375 47.5125C389.028 47.5125 389.486 48.0346 389.486 48.6883C389.486 49.2113 388.963 49.6684 388.31 49.6684ZM388.31 53.7847C384.912 53.6539 381.58 52.8695 378.51 51.5629C377.921 51.3014 377.399 51.04 376.811 50.7793C376.157 50.4521 375.57 50.1256 374.916 49.7334C374.589 49.5377 374.263 49.342 373.936 49.1455C373.152 48.6233 372.433 48.1004 371.715 47.5125C371.584 47.3817 371.453 47.251 371.323 47.1852C369.624 45.7479 368.187 44.1149 366.88 42.3511C364.267 38.757 362.568 34.6415 361.914 30.2638C361.784 29.1529 361.653 28.1078 361.653 26.9969V26.1475V20.3333C361.653 19.6796 362.176 19.2224 362.764 19.2224C363.417 19.2224 363.874 19.7454 363.874 20.3333V26.0826V26.8662C363.874 27.8463 364.005 28.8914 364.136 29.8716C365.05 35.9481 368.122 41.4359 372.76 45.4214C373.544 46.0751 374.328 46.6631 375.177 47.251L375.505 47.4467C376.223 47.9038 377.007 48.3619 377.791 48.7533C378.444 49.0805 379.163 49.4069 379.882 49.7334C382.625 50.8443 385.501 51.4322 388.375 51.5629C389.028 51.5629 389.486 52.0859 389.486 52.7388C389.486 53.3267 388.963 53.7847 388.31 53.7847ZM333.69 56.7901C333.69 56.1364 334.213 55.6792 334.801 55.6792H377.595C376.68 55.287 375.765 54.8947 374.916 54.4376C374.524 54.2419 374.132 54.0453 373.806 53.8496C373.087 53.4574 372.368 53.0002 371.65 52.5431C371.192 52.2166 370.735 51.8894 370.342 51.5629C369.755 51.1057 369.232 50.7135 368.644 50.1906C368.448 49.9949 368.252 49.8641 368.056 49.6684C367.272 48.9498 366.488 48.2311 365.769 47.3817C364.985 46.5323 364.201 45.5522 363.548 44.6378C360.608 40.5216 358.648 35.7516 357.864 30.721C357.668 29.4802 357.537 28.2386 357.537 26.932V26.0168V18.5038C357.537 17.8501 358.059 17.3929 358.648 17.3929C359.301 17.3929 359.758 17.9158 359.758 18.5038V26.0826V26.932C359.824 28.1078 359.889 29.2837 360.085 30.4595C360.804 35.0987 362.633 39.5414 365.378 43.3304C366.423 44.8335 367.599 46.2059 368.971 47.4467C369.363 47.8389 369.755 48.1653 370.147 48.4926C370.604 48.884 371.127 49.2762 371.65 49.6684C372.107 49.9949 372.499 50.3213 372.956 50.5828C373.478 50.91 373.936 51.2365 374.459 51.498C374.982 51.8244 375.505 52.0859 376.027 52.3474C377.072 52.8695 378.118 53.3267 379.229 53.7189C382.234 54.8298 385.304 55.4177 388.505 55.5484H388.636C389.094 55.6134 389.486 56.0056 389.551 56.4628V56.6593V56.7901V56.9208V56.9858C389.551 57.0507 389.486 57.1815 389.486 57.2472V57.3122C389.486 57.378 389.42 57.4429 389.355 57.5087L389.29 57.5737C389.29 57.6395 389.225 57.6395 389.159 57.7044C389.094 57.7694 389.094 57.7694 389.028 57.7694C388.963 57.8352 388.898 57.8352 388.833 57.9001C388.833 57.9001 388.767 57.9001 388.702 57.9659C388.636 57.9659 388.571 57.9659 388.44 58.0309H388.375H334.801C334.147 57.9659 333.69 57.4429 333.69 56.7901ZM339.831 1.5166C331.926 1.5166 325.458 7.91958 325.458 15.8906V59.3374C325.458 67.2435 331.86 73.7114 339.831 73.7114H383.279C391.184 73.7114 397.652 67.3085 397.652 59.3374V15.8906C397.652 7.98454 391.25 1.5166 383.279 1.5166H339.831Z" fill="white"/>
<path d="M221.764 54.4707C219.461 54.4707 217.653 56.2797 217.57 58.4998V58.7465C217.653 61.131 219.461 62.6934 222.011 62.6934C223.984 62.6111 225.711 60.7199 225.711 58.582C225.711 56.2797 223.984 54.4707 221.764 54.4707Z" fill="white"/>
<path d="M212.555 54.4707C210.253 54.4707 208.444 56.2797 208.362 58.4998V58.7465C208.444 61.131 210.253 62.6934 212.802 62.6934C214.775 62.6111 216.502 60.7199 216.502 58.582C216.502 56.2797 214.775 54.4707 212.555 54.4707Z" fill="white"/>
<path d="M175.059 41.6431V46.0011C174.976 50.0302 176.456 53.8949 179.17 56.855C183.035 61.213 189.942 63.1042 195.369 60.9663C200.467 58.9929 203.427 55.7038 204.825 51.9214C206.058 52.0037 207.374 52.0037 208.607 52.0037H209.758H215.432H216.501H216.912H217.241H217.323H217.405H219.708H219.79H219.872C220.53 52.0037 221.105 51.9214 221.681 51.757C222.421 51.5925 223.161 51.2636 223.819 50.7703C224.477 50.2769 225.052 49.7013 225.546 48.9613V49.7013C225.546 50.9347 226.615 52.0037 227.848 52.0037H273.977H274.388C275.375 52.0037 276.362 52.0859 277.348 52.0037C278.006 52.0037 278.664 51.9214 279.239 51.757C279.98 51.5925 280.72 51.2636 281.377 50.7703C282.857 49.7835 283.762 48.139 283.926 46.4123C284.091 44.4388 284.173 42.5476 284.091 40.5742V2.66777C284.091 1.68105 283.762 1.5166 282.857 1.5166C277.759 1.5166 273.813 5.38125 273.813 10.4793V32.7627V41.8898C273.319 41.8076 272.826 41.8076 272.332 41.8076H226.368V40.5742V29.967C226.368 28.9802 226.039 28.8158 225.135 28.8158C220.036 28.8158 216.09 32.6804 216.09 37.7785V41.8076H205.4V40.5742V2.99668C205.4 2.09219 205.071 1.84551 204.249 1.84551C199.151 1.84551 195.204 5.71015 195.204 10.8082V32.7627V35.1472C195.204 35.3117 195.122 35.3939 195.204 35.5584V41.972V46.8234C195.04 49.1257 193.231 51.1814 191.175 51.5103C188.462 52.0037 186.159 50.688 185.255 48.0568C184.761 46.6589 185.008 45.1789 184.926 43.6988C184.926 42.0543 184.515 40.492 183.692 39.0941C181.801 36.0517 179.088 34.6539 175.552 34.6539C174.894 34.6539 174.647 34.8183 174.647 35.4761C175.141 37.5318 175.059 39.5875 175.059 41.6431Z" fill="white"/>
<path d="M296.673 52.0041H302.511H306.869H306.951H307.034C312.214 51.9218 316.408 47.6461 316.408 42.4658V37.0389C316.408 28.8984 309.829 22.3203 301.689 22.3203H292.562C291.575 22.3203 290.753 23.1426 290.753 24.1293C290.753 28.6518 294.453 32.352 298.976 32.352H299.798C303.416 32.352 306.376 35.3121 306.376 38.9301V39.8346C306.376 40.9035 305.471 41.808 304.402 41.808H303.58H302.922H296.838H288.862C287.875 41.808 287.71 42.1369 287.71 43.0414C287.793 48.0572 291.657 52.0041 296.673 52.0041Z" fill="white"/>
<path d="M33.4662 72.479C30.3416 73.7947 26.8881 74.5347 22.859 74.5347C19.4877 74.5347 16.3631 73.9591 13.5674 72.8902C10.7717 71.739 8.3871 70.2589 6.33144 68.2033C4.358 66.2298 2.7957 63.8453 1.64453 61.1318C0.493359 58.4183 0 55.3759 0 52.1691V52.0046C0 48.88 0.575585 46.0021 1.72676 43.2886C2.87793 40.5752 4.44023 38.1906 6.49589 36.1349C8.55155 34.0793 10.9361 32.4348 13.7318 31.2836C16.5275 30.1324 19.5699 29.4746 22.859 29.4746C24.8324 29.4746 26.5592 29.639 28.2037 29.8857C29.766 30.1324 31.2461 30.5435 32.6439 31.0369C34.0418 31.5303 35.2752 32.1881 36.5086 32.9281L36.5456 32.9503C38.4803 34.1138 38.9252 36.727 37.4838 38.4644L34.7144 41.8028C34.3065 42.2945 33.5813 42.3694 33.0789 41.9763C32.5502 41.5619 32.0215 41.1919 31.4927 40.8219C30.6705 40.2463 29.766 39.8351 28.9437 39.424C28.0392 39.0129 27.0525 38.7662 26.0658 38.5195C24.9968 38.2728 23.9279 38.1906 22.6123 38.1906C20.8855 38.1906 19.241 38.5195 17.7609 39.2595C16.2808 39.9996 14.883 40.9863 13.8141 42.2197C12.6629 43.4531 11.7584 44.8509 11.1828 46.4955C10.525 48.14 10.1961 49.8668 10.1961 51.758V52.0046C10.1961 53.9781 10.525 55.8693 11.1828 57.5138C11.8406 59.1584 12.7451 60.6384 13.8963 61.8718C15.0474 63.1052 16.4453 64.0919 18.0898 64.7498C19.6521 65.4076 21.4611 65.7365 23.4345 65.7365C26.3116 65.7365 28.8623 65.1379 31.0413 63.9842C31.9425 63.5073 32.4795 62.5469 32.4795 61.5273V58.9322C32.4795 57.6783 31.737 56.9382 30.821 56.9382H23.7429C23.1188 56.9382 22.6123 56.4317 22.6123 55.8076C22.6123 51.8912 25.7879 48.7156 29.7043 48.7156H39.3454C40.5492 48.7156 41.5244 49.6908 41.5244 50.8946V60.4255C41.5244 65.6666 38.3874 70.3987 33.5599 72.4396L33.4662 72.479Z" fill="white"/>
<path d="M65.7797 72.1897V68.9418C65.2041 69.6818 64.6285 70.3396 63.9707 70.9974C63.3129 71.6552 62.6551 72.2308 61.8328 72.7242C61.0105 73.2175 60.1883 73.6287 59.2016 73.8754C58.2148 74.2043 57.1459 74.2865 55.9947 74.2865C52.3768 74.2865 49.581 73.2175 47.6076 70.9974C45.6342 68.7773 44.6475 65.8172 44.6475 61.9525V42.7937C44.6475 41.4765 45.7148 40.4092 47.032 40.4092C50.9378 40.4092 54.1035 43.5749 54.1035 47.4807V58.9101C54.1035 61.1302 54.5969 62.857 55.5836 63.926C56.5703 65.0771 57.9681 65.6527 59.7771 65.6527C61.5861 65.6527 63.0662 65.0771 64.0529 63.926C65.1219 62.7748 65.6152 61.1302 65.6152 58.9101V42.7937C65.6152 41.4765 66.6825 40.4092 67.9998 40.4092C71.9055 40.4092 75.0713 43.5749 75.0713 47.4807V72.1897C75.0713 73.0301 74.3904 73.7109 73.5501 73.7109H67.3009C66.4605 73.7109 65.7797 73.0301 65.7797 72.1897Z" fill="white"/>
<path d="M84.8549 28.8701C82.1916 28.8701 80.0998 30.9628 80.0044 33.5307V33.816C80.0998 36.5739 82.1916 38.3813 85.1402 38.3813C87.4229 38.2859 89.4201 36.0987 89.4201 33.6253C89.4201 30.9628 87.4229 28.8701 84.8549 28.8701Z" fill="white"/>
<path d="M79.9653 72.1897V42.7937C79.9653 41.4765 81.0326 40.4092 82.3499 40.4092C86.2557 40.4092 89.4214 43.5749 89.4214 47.4807V72.1897C89.4214 73.0301 88.7405 73.7109 87.9002 73.7109H81.4865C80.6462 73.7109 79.9653 73.0301 79.9653 72.1897Z" fill="white"/>
<path d="M119.884 72.1909V68.9429C118.733 70.5052 117.335 71.8209 115.691 72.8076C114.046 73.7943 111.991 74.2876 109.524 74.2876C107.55 74.2876 105.659 73.8765 103.85 73.1365C102.041 72.3964 100.397 71.2453 98.9987 69.8474C97.6009 68.3673 96.4497 66.5584 95.6274 64.4205C94.8052 62.2826 94.394 59.8158 94.394 57.0201V56.8556C94.394 54.0599 94.8052 51.5931 95.6274 49.4553C96.4497 47.3174 97.6009 45.5084 98.9987 44.0283C100.397 42.5482 101.959 41.4793 103.85 40.7392C105.659 39.9992 107.55 39.5881 109.606 39.5881C112.155 39.5881 114.211 40.0814 115.855 41.0682C117.5 42.0549 118.898 43.206 119.966 44.5217V30.7898C119.966 29.4726 121.034 28.4053 122.351 28.4053C126.257 28.4053 129.423 31.571 129.423 35.4768V72.1909C129.423 73.0312 128.742 73.7121 127.901 73.7121H121.405C120.565 73.7121 119.884 73.0312 119.884 72.1909ZM120.049 57.0201C120.049 55.6222 119.802 54.3888 119.391 53.2377C118.98 52.0865 118.404 51.0998 117.664 50.2775C116.924 49.4553 116.102 48.8797 115.115 48.3863C114.128 47.9752 113.059 47.7285 111.991 47.7285C110.839 47.7285 109.853 47.9752 108.866 48.3863C107.879 48.7974 107.057 49.4553 106.317 50.2775C105.577 51.0998 105.001 52.0865 104.508 53.1554C104.015 54.2244 103.85 55.54 103.85 56.9379V57.1023C103.85 58.5002 104.097 59.7336 104.508 60.8847C104.919 62.0359 105.495 63.0226 106.317 63.8449C107.057 64.6672 107.961 65.2428 108.866 65.7361C109.853 66.1472 110.922 66.3939 111.991 66.3939C113.142 66.3939 114.128 66.1472 115.115 65.7361C116.102 65.325 116.924 64.6672 117.664 63.8449C118.404 63.0226 118.98 62.0359 119.391 60.8847C119.802 59.7336 120.049 58.5002 120.049 57.1023V57.0201Z" fill="white"/>
<path d="M166.507 59.2396C166.507 59.5685 166.425 59.9797 166.425 60.3908H143.237C143.73 62.5287 144.635 64.1732 146.033 65.2422C147.431 66.3111 149.24 66.8867 151.378 66.8867C152.94 66.8867 154.338 66.64 155.571 66.0644L155.608 66.0472C158.271 64.7957 161.41 65.1681 163.619 67.1095C164.321 67.7262 164.387 68.8174 163.734 69.485C162.411 70.8377 160.88 71.9198 159.107 72.807C156.887 73.8759 154.255 74.4515 151.213 74.4515C148.746 74.4515 146.444 74.0404 144.306 73.2181C142.168 72.3958 140.359 71.2447 138.797 69.6824C137.235 68.1201 136.001 66.3111 135.179 64.2554C134.274 62.1998 133.863 59.8152 133.863 57.2662V57.1017C133.863 54.7172 134.274 52.4971 135.097 50.3592C135.919 48.2213 137.07 46.4123 138.468 44.85C139.948 43.2877 141.675 42.0543 143.648 41.1498C145.622 40.2453 147.842 39.752 150.309 39.752C153.104 39.752 155.489 40.2453 157.544 41.232C159.6 42.2187 161.245 43.5344 162.643 45.2611C163.958 46.9056 164.945 48.8791 165.603 51.017C166.261 53.1549 166.589 55.4572 166.589 57.8418V58.0062C166.507 58.4996 166.507 58.9107 166.507 59.2396ZM155.078 49.3724C153.844 48.0568 152.282 47.399 150.309 47.399C148.335 47.399 146.691 48.0568 145.457 49.2902C144.224 50.6058 143.402 52.3326 143.073 54.4705H157.298C157.051 52.4148 156.311 50.6881 155.078 49.3724Z" fill="white"/>
<path d="M180.397 64.9822C180.808 64.9822 181.162 64.8358 181.452 64.5456C181.742 64.2553 181.889 63.9001 181.889 63.4906C181.889 63.0918 181.742 62.7424 181.452 62.4513C181.161 62.161 180.807 62.0146 180.397 62.0146C179.989 62.0146 179.633 62.161 179.343 62.4513C179.053 62.7424 178.906 63.0918 178.906 63.4906C178.906 63.9001 179.053 64.2553 179.343 64.5456C179.633 64.8358 179.988 64.9822 180.397 64.9822Z" fill="white"/>
<path d="M177.287 64.9822C177.697 64.9822 178.052 64.8358 178.341 64.5456C178.63 64.2561 178.777 63.9009 178.777 63.4906C178.777 63.0918 178.63 62.7415 178.341 62.4513C178.051 62.1618 177.696 62.0146 177.287 62.0146C176.877 62.0146 176.523 62.1618 176.232 62.4513C175.943 62.7415 175.796 63.0918 175.796 63.4906C175.796 63.9009 175.943 64.2561 176.232 64.5456C176.521 64.8358 176.876 64.9822 177.287 64.9822Z" fill="white"/>
<path d="M182.759 69.3958C182.759 68.7397 182.588 68.1123 182.264 67.5605C181.931 66.9989 181.474 66.5524 180.913 66.2293C180.343 65.9053 179.706 65.7441 179.012 65.7441L175.17 65.763V69.7C175.17 70.3653 175.351 71.0025 175.703 71.5732C176.045 72.1537 176.52 72.61 177.101 72.9422C177.69 73.2752 178.336 73.4372 179.012 73.4372C179.678 73.4372 180.305 73.2662 180.876 72.9332C181.446 72.6002 181.912 72.1438 182.245 71.5732C182.578 71.0025 182.759 70.3751 182.759 69.7V69.3958ZM177.88 68.4732H179.012C179.297 68.4732 179.544 68.5777 179.753 68.7873C179.972 68.9962 180.076 69.2338 180.076 69.5192V69.6622C180.076 69.9755 179.972 70.223 179.772 70.4228C179.563 70.6226 179.316 70.7172 179.012 70.7172C178.698 70.7172 178.441 70.6128 178.213 70.4039C177.994 70.1942 177.88 69.9476 177.88 69.6622V68.4732Z" fill="white"/>
<path d="M235.447 69.9451C235.447 70.1877 235.377 70.3727 235.233 70.5075C235.087 70.6465 234.86 70.7172 234.561 70.7172C234.277 70.7172 234.061 70.6514 233.919 70.5256C233.783 70.4031 233.718 70.2321 233.718 70.0035V67.2012H230.994V69.9525C231.002 70.1902 230.932 70.3735 230.782 70.5125C230.624 70.6588 230.394 70.7304 230.079 70.7304C229.808 70.7304 229.597 70.663 229.434 70.5215C229.281 70.3891 229.208 70.2239 229.208 70.0035V67.2012H226.512V70.6079L226.39 70.7304H226.094V70.7172H188.351C188.155 70.7172 187.989 70.6457 187.841 70.4968C187.694 70.3513 187.622 70.1844 187.622 69.9887V65.7598H184.914V72.6684C184.914 73.1708 184.773 73.5211 184.483 73.7399C184.164 73.9799 183.646 74.1724 182.945 74.3097L182.666 74.3648L183.661 76.9302L183.855 76.8941C184.973 76.6844 185.858 76.2626 186.487 75.6418C187.093 75.039 187.459 74.2677 187.579 73.3468C187.841 73.4076 188.099 73.4397 188.351 73.4397H226.39C227.009 73.4397 227.574 73.2514 228.072 72.879C228.639 73.2514 229.269 73.4397 229.949 73.4397C230.479 73.4397 230.951 73.3756 231.348 73.2481C231.693 73.1379 232.029 72.9554 232.351 72.7063C232.611 72.9193 232.903 73.0903 233.22 73.2161C233.602 73.3641 234.054 73.4397 234.561 73.4397C235.202 73.4397 235.804 73.2876 236.354 72.9858C236.903 72.6816 237.344 72.2614 237.666 71.7343C237.991 71.2032 238.155 70.6013 238.155 69.9451V65.7598H235.447V69.9451Z" fill="white"/>
<path d="M244.84 70.5783C244.84 70.6046 244.834 70.635 244.795 70.6761C244.768 70.7049 244.743 70.7156 244.704 70.7156H243.802V64.5338H241.079V70.7156H238.975V73.4381H244.704C245.214 73.4381 245.696 73.3082 246.134 73.0533C246.57 72.7992 246.921 72.4489 247.178 72.009C247.434 71.5716 247.564 71.0897 247.564 70.5783V62.877H244.84V70.5783Z" fill="white"/>
<path d="M244.054 62.7174H242.496C242.342 62.7174 242.228 62.6656 242.176 62.5727C242.115 62.4699 242.083 62.3671 242.083 62.2635C242.083 62.1706 242.125 62.0883 242.208 62.0267C242.279 61.9543 242.383 61.9231 242.496 61.9231C242.662 61.9231 242.775 61.9543 242.857 62.016C242.93 62.0777 243.023 62.2018 243.136 62.3877L244.074 61.6657C243.929 61.3459 243.713 61.0983 243.434 60.9331C243.166 60.7678 242.847 60.6855 242.496 60.6855C242.063 60.6855 241.702 60.8196 241.403 61.0983C241.093 61.3763 240.918 61.7167 240.856 62.1196C240.825 62.2841 240.846 62.4806 240.898 62.7174H240.381V63.9343H244.054V62.7174Z" fill="white"/>
<rect x="248.964" y="62.8799" width="2.72335" height="10.5612" fill="white"/>
<path d="M262.127 73.9307C261.717 73.9307 261.364 74.077 261.073 74.3681C260.783 74.6567 260.635 75.007 260.635 75.4083C260.635 75.8178 260.783 76.1721 261.073 76.4624C261.364 76.7518 261.718 76.8982 262.127 76.8982C262.535 76.8982 262.89 76.7518 263.181 76.4624C263.47 76.1713 263.618 75.8169 263.618 75.4083C263.618 75.0078 263.47 74.6575 263.181 74.3681C262.89 74.077 262.536 73.9307 262.127 73.9307Z" fill="white"/>
<path d="M315.819 67.8051C315.447 67.1769 314.924 66.6736 314.259 66.3119C313.593 65.9509 312.88 65.77 312.138 65.77C311.682 65.77 311.235 65.8366 310.816 65.9698L307.868 66.8726V62.8789H305.158V70.7151H268.418C268.237 70.7151 268.085 70.6575 267.943 70.5342C267.8 70.41 267.714 70.2678 267.677 70.1346V65.7601H264.938V70.1157C264.938 70.2867 264.881 70.4199 264.767 70.5432C264.653 70.6575 264.51 70.7151 264.348 70.7151H259.233C259.004 70.7151 258.814 70.6386 258.662 70.4865C258.5 70.3344 258.434 70.1535 258.434 69.9159V67.1966H255.676V69.9159C255.676 70.5531 255.838 71.1525 256.161 71.6845C256.475 72.2264 256.912 72.6548 257.454 72.9681C257.996 73.2822 258.596 73.4343 259.233 73.4343H264.606C265.281 73.4343 265.899 73.2345 266.45 72.8258C267.049 73.2345 267.714 73.4343 268.418 73.4343H314.411C314.772 73.4343 315.105 73.3488 315.409 73.1679C315.713 72.987 315.961 72.7404 316.142 72.4361C316.313 72.122 316.408 71.789 316.408 71.428V70.0014C316.408 69.1931 316.208 68.4514 315.819 67.8051ZM313.469 69.1742C313.622 69.4217 313.698 69.6971 313.698 70.0014V70.5819C313.698 70.6386 313.678 70.6674 313.574 70.7151H307.868V69.6881L311.605 68.5558C311.796 68.509 311.976 68.4802 312.147 68.4802C312.433 68.4802 312.699 68.5468 312.937 68.6611C313.165 68.7844 313.346 68.9555 313.469 69.1742Z" fill="white"/>
<path d="M0 16.548H3.73473V11.5256H9.59336V8.11322H3.73473V4.89405H10.0226V1.52441H0V16.548Z" fill="white"/>
<path d="M19.1453 6.16938C18.3724 5.76154 17.5139 5.55762 16.5692 5.55762C15.6967 5.55762 14.8523 5.71138 14.0366 6.01891C13.2217 6.32726 12.4776 6.79513 11.805 7.42498L13.6937 9.4642C14.0366 9.13447 14.437 8.87381 14.8959 8.68058C15.353 8.48735 15.811 8.39032 16.269 8.39032C16.755 8.39032 17.1818 8.49475 17.546 8.70196C17.9111 8.90917 18.0936 9.23479 18.0936 9.67799L18.115 10.0431C17.3421 9.9148 16.5979 9.84984 15.8826 9.84984C14.4518 9.84984 13.3072 10.1261 12.4488 10.6762C11.5904 11.2271 11.1611 12.0683 11.1611 13.1981C11.1611 14.2712 11.5073 15.1403 12.2021 15.8063C12.8961 16.4715 13.8869 16.8037 15.1746 16.8037C16.0043 16.8037 16.7163 16.6541 17.31 16.3531C17.9037 16.053 18.3362 15.6378 18.6084 15.1082V16.5464H21.6343V10.2363C21.6343 9.36388 21.4123 8.56957 20.9691 7.8542C20.5259 7.13883 19.9174 6.57722 19.1453 6.16938ZM18.1364 12.3397C18.1364 12.9268 17.9604 13.3848 17.6102 13.7137C17.2599 14.0426 16.7624 14.207 16.1194 14.207C15.589 14.207 15.2174 14.0993 15.0028 13.8847C14.7881 13.6701 14.6812 13.3634 14.6812 12.9621C14.6812 12.19 15.2889 11.8035 16.505 11.8035C16.9482 11.8035 17.4926 11.8611 18.1364 11.9746V12.3397Z" fill="white"/>
<path d="M39.6718 6.09456C39.1209 5.73687 38.4877 5.55762 37.7724 5.55762C36.9855 5.55762 36.2627 5.73687 35.6049 6.09456C34.9462 6.45224 34.4743 6.91764 34.1881 7.48912C33.9587 6.91764 33.5517 6.45224 32.9646 6.09456C32.3783 5.73687 31.7205 5.55762 30.9903 5.55762C30.2749 5.55762 29.6163 5.71878 29.0153 6.04111C28.415 6.36261 27.971 6.78115 27.6848 7.2967V5.81499H24.1655V16.5464H27.7703V10.6877C27.7703 10.1434 27.9142 9.6895 28.2004 9.32441C28.4865 8.95933 28.8796 8.77678 29.3803 8.77678C29.8235 8.77678 30.2034 8.95604 30.5175 9.31372C30.8324 9.67141 30.9903 10.1294 30.9903 10.6877V16.5464H34.596V10.6877C34.596 10.1582 34.7464 9.70759 35.0466 9.3351C35.3475 8.96344 35.7545 8.77678 36.2701 8.77678C36.7133 8.77678 37.0817 8.95604 37.3752 9.31372C37.6679 9.67141 37.8151 10.1294 37.8151 10.6877V16.5464H41.4207V9.67881C41.4207 8.8919 41.267 8.18722 40.9594 7.56477C40.6519 6.94231 40.2219 6.45224 39.6718 6.09456Z" fill="white"/>
<rect x="43.8457" y="5.81641" width="3.60563" height="10.7314" fill="white"/>
<path d="M45.6485 0C45.0615 0 44.5574 0.207211 44.1356 0.622455C43.7129 1.0377 43.5024 1.53764 43.5024 2.12473C43.5024 2.71101 43.7129 3.21259 44.1356 3.62701C44.5574 4.04225 45.0615 4.24946 45.6485 4.24946C46.2208 4.24946 46.7142 4.04225 47.1295 3.62701C47.5447 3.21259 47.7519 2.71101 47.7519 2.12473C47.7519 1.55244 47.5447 1.05497 47.1295 0.633144C46.7142 0.211322 46.2208 0 45.6485 0Z" fill="white"/>
<rect x="49.8774" y="1.52344" width="3.60563" height="15.0236" fill="white"/>
<path d="M60.5455 12.2114L58.3567 5.55762H54.4937L58.7209 16.3531L58.6354 16.6105C58.5063 17.0109 58.3065 17.2798 58.0343 17.4155C57.7622 17.552 57.2902 17.6194 56.6184 17.6194H54.751V20.8394H57.2622C58.5063 20.8394 59.4865 20.6059 60.2026 20.1413C60.9172 19.6767 61.4755 18.9079 61.8759 17.834L66.405 5.55762H62.542L60.5455 12.2114Z" fill="white"/>
<path d="M80.5464 12.2762L76.9194 1.52344H72.0688V16.547H75.76V6.69631L79.1518 16.547H81.9204L85.4833 6.69631V16.547H89.1744V1.52344H84.453L80.5464 12.2762Z" fill="white"/>
<path d="M97.1587 5.60059C96.028 5.60059 95.0158 5.83 94.1212 6.288C93.2274 6.746 92.5301 7.39312 92.0286 8.23019C91.5278 9.06726 91.2778 10.0293 91.2778 11.1172C91.2778 12.233 91.5278 13.2164 92.0286 14.0683C92.5301 14.9193 93.2348 15.5812 94.1434 16.0532C95.052 16.5252 96.107 16.762 97.3083 16.762C98.4101 16.762 99.4404 16.6041 100.399 16.2892C101.358 15.9751 102.066 15.5525 102.524 15.0229L100.571 12.8768C100.27 13.163 99.8335 13.3957 99.262 13.5749C98.6897 13.7533 98.0887 13.843 97.4588 13.843C96.801 13.843 96.2139 13.6785 95.6992 13.3488C95.1836 13.0199 94.9262 12.6055 94.9262 12.1047H102.91C102.953 11.7322 102.975 11.3819 102.975 11.0522C102.975 9.32134 102.46 7.98022 101.43 7.02804C100.399 6.07668 98.9759 5.60059 97.1587 5.60059ZM94.8835 9.91501C94.8835 9.67162 94.9871 9.42165 95.1951 9.16428C95.4015 8.90609 95.6811 8.68819 96.0314 8.50894C96.3825 8.33051 96.7574 8.24088 97.1587 8.24088C97.8453 8.24088 98.3855 8.40615 98.7794 8.73506C99.1724 9.06397 99.3689 9.45701 99.3689 9.91501H94.8835Z" fill="white"/>
<path d="M112.549 7.31794C112.506 7.13293 112.327 6.8994 112.013 6.62066C111.697 6.34191 111.293 6.10263 110.8 5.902C110.306 5.70137 109.787 5.60105 109.243 5.60105C107.655 5.60105 106.435 6.09852 105.584 7.09264C104.732 8.08758 104.307 9.41471 104.307 11.074C104.307 12.8625 104.715 14.2579 105.531 15.2594C106.346 16.2609 107.569 16.7617 109.2 16.7617C109.987 16.7617 110.721 16.6005 111.4 16.279C112.08 15.9567 112.556 15.5241 112.827 14.9798V16.547H116.069V1.52344H112.549V7.31794ZM111.905 12.92C111.476 13.392 110.925 13.628 110.252 13.628C109.551 13.628 108.993 13.3961 108.578 12.9307C108.163 12.4661 107.956 11.847 107.956 11.074C107.956 10.3299 108.159 9.73293 108.567 9.28233C108.975 8.8309 109.501 8.6056 110.145 8.6056C110.875 8.6056 111.458 8.8309 111.894 9.28233C112.33 9.73293 112.549 10.3299 112.549 11.074C112.549 11.833 112.334 12.4472 111.905 12.92Z" fill="white"/>
<rect x="118.581" y="5.81641" width="3.60563" height="10.7314" fill="white"/>
<path d="M120.381 0C119.794 0 119.29 0.207211 118.868 0.622455C118.445 1.0377 118.235 1.53764 118.235 2.12473C118.235 2.71101 118.445 3.21259 118.868 3.62701C119.29 4.04225 119.794 4.24946 120.381 4.24946C120.953 4.24946 121.447 4.04225 121.862 3.62701C122.277 3.21259 122.484 2.71101 122.484 2.12473C122.484 1.55244 122.277 1.05497 121.862 0.633144C121.447 0.211322 120.953 0 120.381 0Z" fill="white"/>
<path d="M130.063 8.51876C130.964 8.51876 131.694 8.92002 132.253 9.72091L134.891 7.85355C134.434 7.03786 133.772 6.40143 132.907 5.94343C132.041 5.48542 131.05 5.25684 129.933 5.25684C128.789 5.25684 127.776 5.50023 126.897 5.98619C126.017 6.47297 125.337 7.15627 124.858 8.03609C124.378 8.91591 124.139 9.92072 124.139 11.0513C124.139 12.1811 124.378 13.1868 124.858 14.0666C125.337 14.9464 126.017 15.6297 126.897 16.1165C127.776 16.6024 128.789 16.8458 129.933 16.8458C131.05 16.8458 132.041 16.6172 132.907 16.1592C133.772 15.7012 134.434 15.0648 134.891 14.2491L132.253 12.3818C131.694 13.1835 130.964 13.5839 130.063 13.5839C129.376 13.5839 128.826 13.3553 128.41 12.8973C127.994 12.4393 127.787 11.8234 127.787 11.0513C127.787 10.2784 127.994 9.66335 128.41 9.20535C128.826 8.74735 129.376 8.51876 130.063 8.51876Z" fill="white"/>
<path d="M138.175 0C137.588 0 137.084 0.207211 136.662 0.622455C136.239 1.0377 136.029 1.53764 136.029 2.12473C136.029 2.71101 136.239 3.21259 136.662 3.62701C137.084 4.04225 137.588 4.24946 138.175 4.24946C138.747 4.24946 139.241 4.04225 139.656 3.62701C140.071 3.21259 140.278 2.71101 140.278 2.12473C140.278 1.55244 140.071 1.05497 139.656 0.633144C139.241 0.211322 138.747 0 138.175 0Z" fill="white"/>
<rect x="136.372" y="5.81641" width="3.60563" height="10.7314" fill="white"/>
<path d="M151.245 6.04029C150.672 5.71796 150.05 5.55762 149.377 5.55762C148.662 5.55762 147.996 5.71467 147.382 6.0296C146.766 6.34452 146.308 6.76635 146.008 7.29588V5.81499H142.488V16.5464H146.093L146.073 10.4937C146.073 10.0217 146.24 9.61714 146.577 9.28083C146.913 8.94453 147.317 8.77678 147.789 8.77678C148.261 8.79076 148.662 8.96262 148.991 9.29152C149.32 9.62125 149.485 10.0217 149.485 10.4937V16.5464H153.091V9.22739C153.091 8.55477 152.926 7.93643 152.597 7.37071C152.268 6.80582 151.817 6.36262 151.245 6.04029Z" fill="white"/>
<path d="M166.589 11.0522C166.589 9.32134 166.074 7.98022 165.043 7.02804C164.013 6.07668 162.59 5.60059 160.772 5.60059C159.642 5.60059 158.63 5.83 157.735 6.288C156.841 6.746 156.144 7.39312 155.642 8.23019C155.142 9.06726 154.892 10.0293 154.892 11.1172C154.892 12.233 155.142 13.2164 155.642 14.0683C156.144 14.9193 156.849 15.5812 157.757 16.0532C158.666 16.5252 159.721 16.762 160.922 16.762C162.024 16.762 163.054 16.6041 164.013 16.2892C164.972 15.9751 165.68 15.5525 166.138 15.0229L164.185 12.8768C163.884 13.163 163.447 13.3957 162.876 13.5749C162.304 13.7533 161.702 13.843 161.073 13.843C160.415 13.843 159.828 13.6785 159.313 13.3488C158.797 13.0199 158.54 12.6055 158.54 12.1047H166.524C166.567 11.7322 166.589 11.3819 166.589 11.0522ZM158.497 9.91501C158.497 9.67162 158.601 9.42165 158.809 9.16428C159.015 8.90609 159.295 8.68819 159.645 8.50894C159.996 8.33051 160.371 8.24088 160.772 8.24088C161.459 8.24088 161.999 8.40615 162.393 8.73506C162.786 9.06397 162.983 9.45701 162.983 9.91501H158.497Z" fill="white"/>
</svg>
