<svg width="265" height="52" viewBox="0 0 265 52" fill="none" xmlns="http://www.w3.org/2000/svg">
<path d="M224.163 35.104C224.163 34.6683 224.511 34.3637 224.903 34.3637H245.149C245.367 34.3637 245.541 34.4508 245.715 34.625C245.977 34.9297 245.977 35.4086 245.672 35.67C245.541 35.8004 245.367 35.8876 245.149 35.8876H224.86C224.468 35.8443 224.163 35.539 224.163 35.104ZM226.34 32.3608C226.34 31.9252 226.688 31.6205 227.08 31.6205H241.971C242.189 31.6205 242.363 31.7076 242.537 31.8386C242.798 32.1433 242.798 32.6222 242.493 32.8836C242.363 33.014 242.189 33.1011 241.971 33.1011H227.08C226.688 33.1011 226.34 32.7965 226.34 32.3608ZM258.777 33.1011C256.731 33.014 254.685 32.4912 252.813 31.6205C252.638 31.5334 252.507 31.4901 252.333 31.403C251.768 31.0983 251.245 30.7936 250.723 30.4451C250.2 30.0966 249.721 29.7048 249.242 29.313C248.284 28.4856 247.457 27.5716 246.717 26.5699C245.237 24.5237 244.279 22.1724 243.93 19.6906C243.843 19.0813 243.8 18.4714 243.756 17.8182V17.3393V14.9447C243.756 14.5096 244.104 14.2044 244.496 14.2044C244.932 14.2044 245.237 14.5529 245.237 14.9447V16.8604V17.3831V17.8182C245.237 18.3843 245.324 18.9503 245.367 19.5164C245.715 21.7373 246.586 23.8706 247.892 25.6991C248.546 26.6137 249.329 27.4406 250.2 28.1809C250.636 28.5294 251.071 28.8774 251.55 29.2259C252.029 29.5305 252.507 29.8358 253.03 30.0966C254.816 31.0112 256.818 31.5334 258.821 31.6643C259.256 31.6643 259.561 32.0123 259.561 32.4479C259.561 32.7965 259.213 33.1011 258.777 33.1011ZM258.777 35.8443C256.513 35.7571 254.293 35.2344 252.247 34.3637C251.854 34.1894 251.506 34.0151 251.115 33.8414C250.679 33.6233 250.287 33.4058 249.851 33.1444C249.634 33.014 249.416 32.8836 249.199 32.7526C248.676 32.4047 248.197 32.0561 247.718 31.6643C247.631 31.5772 247.544 31.4901 247.457 31.4463C246.325 30.4884 245.367 29.4001 244.496 28.2247C242.755 25.8296 241.623 23.087 241.187 20.1696C241.1 19.4293 241.013 18.7328 241.013 17.9925V17.4264V13.5517C241.013 13.1161 241.361 12.8114 241.753 12.8114C242.189 12.8114 242.493 13.1599 242.493 13.5517V17.3831V17.9053C242.493 18.5585 242.58 19.255 242.668 19.9082C243.277 23.9577 245.324 27.6148 248.415 30.2709C248.938 30.7065 249.46 31.0983 250.026 31.4901L250.244 31.6205C250.723 31.9252 251.245 32.2304 251.768 32.4912C252.203 32.7093 252.682 32.9269 253.161 33.1444C254.989 33.8847 256.906 34.2765 258.821 34.3637C259.256 34.3637 259.561 34.7122 259.561 35.1472C259.561 35.539 259.213 35.8443 258.777 35.8443ZM222.378 37.8471C222.378 37.4115 222.726 37.1068 223.118 37.1068H251.637C251.027 36.8454 250.417 36.584 249.851 36.2794C249.591 36.1489 249.329 36.018 249.112 35.8876C248.633 35.6262 248.154 35.3215 247.675 35.0168C247.37 34.7993 247.065 34.5812 246.804 34.3637C246.412 34.059 246.064 33.7976 245.672 33.4491C245.541 33.3187 245.411 33.2315 245.28 33.1011C244.758 32.6222 244.235 32.1433 243.756 31.5772C243.234 31.0112 242.711 30.358 242.276 29.7486C240.316 27.0055 239.01 23.8267 238.488 20.4742C238.357 19.6474 238.27 18.8199 238.27 17.9492V17.3393V12.3325C238.27 11.8969 238.618 11.5922 239.01 11.5922C239.446 11.5922 239.75 11.9407 239.75 12.3325V17.3831V17.9492C239.794 18.7328 239.837 19.5164 239.968 20.3C240.447 23.3916 241.666 26.3523 243.495 28.8774C244.191 29.8791 244.975 30.7936 245.89 31.6205C246.151 31.8819 246.412 32.0994 246.673 32.3175C246.978 32.5784 247.326 32.8397 247.675 33.1011C247.98 33.3187 248.241 33.5362 248.546 33.7105C248.894 33.9286 249.199 34.1461 249.547 34.3204C249.895 34.5379 250.244 34.7122 250.592 34.8864C251.288 35.2344 251.985 35.539 252.726 35.8004C254.728 36.5407 256.775 36.9325 258.908 37.0197H258.995C259.3 37.063 259.561 37.3243 259.605 37.629V37.76V37.8471V37.9342V37.9775C259.605 38.0208 259.561 38.1079 259.561 38.1518V38.1951C259.561 38.2389 259.518 38.2822 259.474 38.326L259.431 38.3693C259.431 38.4132 259.387 38.4132 259.343 38.4564C259.3 38.4997 259.3 38.4997 259.256 38.4997C259.213 38.5436 259.169 38.5436 259.126 38.5869C259.126 38.5869 259.082 38.5869 259.039 38.6307C258.995 38.6307 258.952 38.6307 258.865 38.674H258.821H223.118C222.683 38.6307 222.378 38.2822 222.378 37.8471ZM226.471 1.01196C221.202 1.01196 216.892 5.27901 216.892 10.591V39.5447C216.892 44.8134 221.159 49.1238 226.471 49.1238H255.425C260.693 49.1238 265.003 44.8567 265.003 39.5447V10.591C265.003 5.3223 260.737 1.01196 255.425 1.01196H226.471Z" fill="#0A2C75"/>
<path d="M147.788 36.3004C146.254 36.3004 145.048 37.506 144.994 38.9855V39.1499C145.048 40.739 146.254 41.7802 147.953 41.7802C149.268 41.7254 150.419 40.465 150.419 39.0403C150.419 37.506 149.268 36.3004 147.788 36.3004Z" fill="#03847D"/>
<path d="M141.652 36.3004C140.117 36.3004 138.912 37.506 138.857 38.9855V39.1499C138.912 40.739 140.117 41.7802 141.816 41.7802C143.131 41.7254 144.282 40.465 144.282 39.0403C144.282 37.506 143.131 36.3004 141.652 36.3004Z" fill="#03847D"/>
<path d="M116.664 27.7529V30.6572C116.609 33.3422 117.595 35.9177 119.403 37.8904C121.979 40.7946 126.582 42.055 130.198 40.6302C133.596 39.3151 135.569 37.1232 136.5 34.6026C137.322 34.6574 138.199 34.6574 139.021 34.6574H139.788H143.569H144.281H144.555H144.774H144.829H144.884H146.418H146.473H146.528C146.966 34.6574 147.35 34.6026 147.734 34.493C148.227 34.3834 148.72 34.1642 149.158 33.8354C149.597 33.5066 149.98 33.123 150.309 32.6299V33.123C150.309 33.945 151.021 34.6574 151.843 34.6574H182.584H182.858C183.516 34.6574 184.174 34.7122 184.831 34.6574C185.27 34.6574 185.708 34.6026 186.091 34.493C186.585 34.3834 187.078 34.1642 187.516 33.8354C188.503 33.1778 189.105 32.0819 189.215 30.9312C189.325 29.616 189.379 28.3557 189.325 27.0406V1.77912C189.325 1.12156 189.105 1.01196 188.503 1.01196C185.105 1.01196 182.475 3.58743 182.475 6.98484V21.8348V27.9173C182.146 27.8625 181.817 27.8625 181.489 27.8625H150.857V27.0406V19.9717C150.857 19.3142 150.638 19.2046 150.035 19.2046C146.638 19.2046 144.007 21.7801 144.007 25.1775V27.8625H136.884V27.0406V1.99831C136.884 1.39554 136.665 1.23115 136.117 1.23115C132.719 1.23115 130.089 3.80661 130.089 7.20403V21.8348V23.424C130.089 23.5336 130.034 23.5884 130.089 23.6979V27.9721V31.2051C129.979 32.7395 128.774 34.1094 127.404 34.3286C125.596 34.6574 124.061 33.7806 123.458 32.0271C123.13 31.0956 123.294 30.1092 123.239 29.1229C123.239 28.0269 122.965 26.9858 122.417 26.0542C121.157 24.0267 119.349 23.0952 116.992 23.0952C116.554 23.0952 116.39 23.2048 116.39 23.6432C116.718 25.0131 116.664 26.383 116.664 27.7529Z" fill="#03847D"/>
<path d="M197.708 34.6562H201.599H204.503H204.558H204.613C208.065 34.6014 210.86 31.752 210.86 28.2998V24.6832C210.86 19.2583 206.476 14.8745 201.051 14.8745H194.968C194.311 14.8745 193.763 15.4225 193.763 16.08C193.763 19.0939 196.229 21.5597 199.243 21.5597H199.791C202.202 21.5597 204.174 23.5324 204.174 25.9435V26.5463C204.174 27.2586 203.572 27.8614 202.859 27.8614H202.311H201.873H197.818H192.502C191.845 27.8614 191.735 28.0806 191.735 28.6834C191.79 32.026 194.366 34.6562 197.708 34.6562Z" fill="#03847D"/>
<path d="M22.3024 48.3021C20.2201 49.1788 17.9186 49.672 15.2336 49.672C12.9869 49.672 10.9046 49.2884 9.04152 48.5761C7.17842 47.8089 5.5893 46.8226 4.21937 45.4526C2.90424 44.1375 1.8631 42.5484 1.09594 40.7401C0.328782 38.9318 0 36.9043 0 34.7672V34.6576C0 32.5753 0.383579 30.6574 1.15074 28.8491C1.9179 27.0408 2.95904 25.4517 4.32897 24.0818C5.69889 22.7119 7.28801 21.6159 9.15111 20.8488C11.0142 20.0816 13.0417 19.6432 15.2336 19.6432C16.5487 19.6432 17.6995 19.7528 18.7954 19.9172C19.8365 20.0816 20.8229 20.3556 21.7544 20.6844C22.686 21.0131 23.5079 21.4515 24.3299 21.9447L24.3546 21.9595C25.6439 22.7349 25.9404 24.4763 24.9798 25.6342L23.1342 27.8589C22.8624 28.1866 22.3791 28.2365 22.0443 27.9746C21.692 27.6984 21.3396 27.4518 20.9873 27.2052C20.4393 26.8216 19.8365 26.5476 19.2886 26.2737C18.6858 25.9997 18.0282 25.8353 17.3707 25.6709C16.6583 25.5065 15.9459 25.4517 15.0692 25.4517C13.9185 25.4517 12.8225 25.6709 11.8362 26.1641C10.8498 26.6572 9.91827 27.3148 9.20591 28.1368C8.43875 28.9587 7.83598 29.8903 7.4524 30.9862C7.01402 32.0821 6.79484 33.2329 6.79484 34.4932V34.6576C6.79484 35.9727 7.01402 37.2331 7.4524 38.329C7.89078 39.425 8.49355 40.4113 9.2607 41.2333C10.0279 42.0552 10.9594 42.7128 12.0554 43.1512C13.0965 43.5895 14.302 43.8087 15.6172 43.8087C17.5345 43.8087 19.2343 43.4098 20.6864 42.641C21.287 42.3232 21.6448 41.6831 21.6448 41.0037V39.2743C21.6448 38.4386 21.15 37.9454 20.5396 37.9454H15.8227C15.4067 37.9454 15.0692 37.6079 15.0692 37.192C15.0692 34.582 17.1855 32.4657 19.7954 32.4657H26.2204C27.0226 32.4657 27.6725 33.1156 27.6725 33.9178V40.2694C27.6725 43.7621 25.582 46.9157 22.3649 48.2758L22.3024 48.3021Z" fill="#0A2C75"/>
<path d="M43.8387 48.1084V45.9439C43.4551 46.4371 43.0715 46.8755 42.6332 47.3139C42.1948 47.7523 41.7564 48.1358 41.2084 48.4646C40.6605 48.7934 40.1125 49.0674 39.4549 49.2318C38.7974 49.451 38.085 49.5058 37.3179 49.5058C34.9068 49.5058 33.0437 48.7934 31.7286 47.3139C30.4134 45.8344 29.7559 43.8617 29.7559 41.2862V28.5185C29.7559 27.6406 30.4671 26.9294 31.345 26.9294C33.9478 26.9294 36.0575 29.0391 36.0575 31.6419V39.2587C36.0575 40.7382 36.3863 41.889 37.0439 42.6013C37.7014 43.3685 38.633 43.7521 39.8385 43.7521C41.0441 43.7521 42.0304 43.3685 42.688 42.6013C43.4003 41.8342 43.7291 40.7382 43.7291 39.2587V28.5185C43.7291 27.6406 44.4404 26.9294 45.3182 26.9294C47.9211 26.9294 50.0308 29.0391 50.0308 31.6419V48.1084C50.0308 48.6685 49.5771 49.1222 49.017 49.1222H44.8524C44.2924 49.1222 43.8387 48.6685 43.8387 48.1084Z" fill="#0A2C75"/>
<path d="M56.5504 19.2384C54.7755 19.2384 53.3814 20.633 53.3179 22.3443V22.5345C53.3814 24.3724 54.7755 25.5768 56.7405 25.5768C58.2617 25.5132 59.5927 24.0556 59.5927 22.4073C59.5927 20.633 58.2617 19.2384 56.5504 19.2384Z" fill="#0A2C75"/>
<path d="M53.29 48.1084V28.5185C53.29 27.6406 54.0013 26.9294 54.8792 26.9294C57.482 26.9294 59.5917 29.0391 59.5917 31.6419V48.1084C59.5917 48.6685 59.138 49.1222 58.578 49.1222H54.3038C53.7438 49.1222 53.29 48.6685 53.29 48.1084Z" fill="#0A2C75"/>
<path d="M79.8953 48.1101V45.9456C79.1281 46.9868 78.1966 47.8635 77.1007 48.5211C76.0047 49.1787 74.6348 49.5074 72.9909 49.5074C71.6757 49.5074 70.4154 49.2335 69.2099 48.7403C68.0043 48.2471 66.9084 47.4799 65.9768 46.5484C65.0453 45.5621 64.2781 44.3565 63.7302 42.9318C63.1822 41.5071 62.9082 39.8632 62.9082 38.0001V37.8905C62.9082 36.0274 63.1822 34.3835 63.7302 32.9587C64.2781 31.534 65.0453 30.3285 65.9768 29.3421C66.9084 28.3558 67.9495 27.6434 69.2099 27.1502C70.4154 26.6571 71.6757 26.3831 73.0457 26.3831C74.7444 26.3831 76.1143 26.7119 77.2102 27.3694C78.3062 28.027 79.2377 28.7942 79.9501 29.6709V20.5198C79.9501 19.642 80.6614 18.9307 81.5392 18.9307C84.1421 18.9307 86.2518 21.0404 86.2518 23.6432V48.1101C86.2518 48.6702 85.798 49.1239 85.238 49.1239H80.909C80.349 49.1239 79.8953 48.6702 79.8953 48.1101ZM80.0049 38.0001C80.0049 37.0685 79.8405 36.2466 79.5665 35.4794C79.2925 34.7122 78.909 34.0547 78.4158 33.5067C77.9226 32.9587 77.3746 32.5752 76.7171 32.2464C76.0595 31.9724 75.3471 31.808 74.6348 31.808C73.8676 31.808 73.2101 31.9724 72.5525 32.2464C71.8949 32.5204 71.347 32.9587 70.8538 33.5067C70.3606 34.0547 69.977 34.7122 69.6482 35.4246C69.3195 36.137 69.2099 37.0137 69.2099 37.9453V38.0549C69.2099 38.9864 69.3743 39.8084 69.6482 40.5755C69.9222 41.3427 70.3058 42.0002 70.8538 42.5482C71.347 43.0962 71.9497 43.4798 72.5525 43.8086C73.2101 44.0825 73.9224 44.2469 74.6348 44.2469C75.4019 44.2469 76.0595 44.0825 76.7171 43.8086C77.3746 43.5346 77.9226 43.0962 78.4158 42.5482C78.909 42.0002 79.2925 41.3427 79.5665 40.5755C79.8405 39.8084 80.0049 38.9864 80.0049 38.0549V38.0001Z" fill="#0A2C75"/>
<path d="M110.964 39.4782C110.964 39.6974 110.909 39.9714 110.909 40.2454H95.4563C95.7851 41.6701 96.3879 42.766 97.3194 43.4784C98.251 44.1908 99.4565 44.5743 100.881 44.5743C101.922 44.5743 102.854 44.41 103.676 44.0264L103.701 44.0149C105.475 43.1809 107.567 43.4291 109.039 44.7228C109.507 45.1338 109.551 45.861 109.116 46.3059C108.234 47.2073 107.214 47.9285 106.032 48.5197C104.553 49.2321 102.799 49.6157 100.772 49.6157C99.1278 49.6157 97.5934 49.3417 96.1687 48.7937C94.744 48.2457 93.5384 47.4786 92.4973 46.4374C91.4561 45.3963 90.6342 44.1908 90.0862 42.8208C89.4835 41.4509 89.2095 39.8618 89.2095 38.1631V38.0535C89.2095 36.4644 89.4835 34.9849 90.0314 33.5601C90.5794 32.1354 91.3466 30.9299 92.2781 29.8887C93.2645 28.8476 94.4152 28.0256 95.7303 27.4229C97.0455 26.8201 98.525 26.4913 100.169 26.4913C102.032 26.4913 103.621 26.8201 104.991 27.4777C106.361 28.1352 107.457 29.012 108.388 30.1627C109.265 31.2587 109.923 32.5738 110.361 33.9985C110.8 35.4232 111.019 36.9576 111.019 38.5467V38.6563C110.964 38.985 110.964 39.259 110.964 39.4782ZM103.347 32.9026C102.525 32.0258 101.484 31.5874 100.169 31.5874C98.8538 31.5874 97.7578 32.0258 96.9359 32.8478C96.1139 33.7245 95.5659 34.8753 95.3467 36.3H104.827C104.662 34.9301 104.169 33.7793 103.347 32.9026Z" fill="#0A2C75"/>
<path d="M120.22 43.3046C120.494 43.3046 120.73 43.2071 120.923 43.0137C121.116 42.8202 121.214 42.5835 121.214 42.3106C121.214 42.0448 121.116 41.812 120.923 41.618C120.729 41.4245 120.493 41.327 120.22 41.327C119.948 41.327 119.711 41.4245 119.518 41.618C119.324 41.812 119.226 42.0448 119.226 42.3106C119.226 42.5835 119.324 42.8202 119.518 43.0137C119.711 43.2071 119.947 43.3046 120.22 43.3046Z" fill="#0A2C75"/>
<path d="M118.146 43.3046C118.419 43.3046 118.656 43.2071 118.848 43.0137C119.041 42.8208 119.139 42.584 119.139 42.3106C119.139 42.0448 119.041 41.8114 118.848 41.618C118.655 41.4251 118.419 41.327 118.146 41.327C117.873 41.327 117.637 41.4251 117.443 41.618C117.25 41.8114 117.152 42.0448 117.152 42.3106C117.152 42.584 117.25 42.8208 117.443 43.0137C117.636 43.2071 117.872 43.3046 118.146 43.3046Z" fill="#0A2C75"/>
<path d="M121.794 46.2447C121.794 45.8074 121.68 45.3893 121.464 45.0216C121.242 44.6474 120.938 44.3498 120.564 44.1345C120.184 43.9186 119.759 43.8112 119.296 43.8112L116.736 43.8238V46.4474C116.736 46.8908 116.857 47.3154 117.091 47.6957C117.319 48.0826 117.636 48.3867 118.023 48.6081C118.416 48.83 118.847 48.938 119.296 48.938C119.74 48.938 120.158 48.824 120.539 48.6021C120.919 48.3801 121.229 48.076 121.451 47.6957C121.673 47.3154 121.794 46.8973 121.794 46.4474V46.2447ZM118.542 45.6299H119.296C119.487 45.6299 119.652 45.6995 119.791 45.8392C119.936 45.9784 120.006 46.1368 120.006 46.3269V46.4222C120.006 46.631 119.936 46.796 119.803 46.9291C119.664 47.0623 119.499 47.1253 119.296 47.1253C119.088 47.1253 118.916 47.0557 118.764 46.9165C118.619 46.7768 118.542 46.6124 118.542 46.4222V45.6299Z" fill="#0A2C75"/>
<path d="M156.907 46.6142C156.907 46.7759 156.86 46.8992 156.764 46.989C156.667 47.0816 156.515 47.1287 156.317 47.1287C156.127 47.1287 155.983 47.0849 155.889 47.0011C155.798 46.9194 155.754 46.8054 155.754 46.6531V44.7856H153.939V46.6191C153.945 46.7775 153.898 46.8997 153.798 46.9923C153.693 47.0898 153.539 47.1375 153.329 47.1375C153.149 47.1375 153.008 47.0926 152.9 46.9983C152.797 46.9101 152.749 46.8 152.749 46.6531V44.7856H150.952V47.0559L150.871 47.1375H150.674V47.1287H125.521C125.391 47.1287 125.28 47.0811 125.181 46.9819C125.083 46.8849 125.036 46.7737 125.036 46.6432V43.825H123.231V48.4291C123.231 48.7639 123.137 48.9973 122.943 49.1431C122.731 49.3031 122.386 49.4313 121.919 49.5228L121.732 49.5595L122.396 51.2692L122.525 51.2451C123.27 51.1054 123.86 50.8243 124.279 50.4105C124.683 50.0089 124.927 49.4949 125.007 48.8812C125.181 48.9217 125.353 48.9431 125.521 48.9431H150.871C151.284 48.9431 151.66 48.8176 151.992 48.5694C152.37 48.8176 152.79 48.9431 153.243 48.9431C153.596 48.9431 153.91 48.9003 154.175 48.8154C154.405 48.742 154.629 48.6203 154.844 48.4543C155.017 48.5962 155.211 48.7102 155.423 48.794C155.678 48.8927 155.978 48.9431 156.317 48.9431C156.743 48.9431 157.145 48.8417 157.511 48.6406C157.877 48.4378 158.171 48.1578 158.386 47.8066C158.602 47.4526 158.712 47.0515 158.712 46.6142V43.825H156.907V46.6142Z" fill="#0A2C75"/>
<path d="M163.166 47.036C163.166 47.0535 163.163 47.0738 163.137 47.1012C163.119 47.1204 163.102 47.1275 163.076 47.1275H162.475V43.0078H160.661V47.1275H159.258V48.9418H163.076C163.416 48.9418 163.737 48.8552 164.029 48.6854C164.319 48.516 164.553 48.2826 164.725 47.9894C164.895 47.6979 164.982 47.3768 164.982 47.036V41.9037H163.166V47.036Z" fill="#0A2C75"/>
<path d="M162.641 41.7966H161.603C161.5 41.7966 161.425 41.7621 161.39 41.7002C161.349 41.6317 161.328 41.5632 161.328 41.4941C161.328 41.4322 161.356 41.3774 161.411 41.3363C161.459 41.2881 161.528 41.2673 161.603 41.2673C161.713 41.2673 161.789 41.2881 161.844 41.3292C161.892 41.3703 161.954 41.453 162.03 41.5769L162.655 41.0957C162.558 40.8826 162.414 40.7177 162.228 40.6075C162.05 40.4974 161.837 40.4426 161.603 40.4426C161.314 40.4426 161.074 40.5319 160.874 40.7177C160.668 40.9029 160.552 41.1297 160.51 41.3982C160.49 41.5078 160.503 41.6388 160.538 41.7966H160.194V42.6076H162.641V41.7966Z" fill="#0A2C75"/>
<rect x="165.914" y="41.9037" width="1.81489" height="7.03814" fill="#0A2C75"/>
<path d="M174.684 49.2675C174.412 49.2675 174.176 49.365 173.982 49.559C173.789 49.7513 173.69 49.9848 173.69 50.2522C173.69 50.525 173.789 50.7612 173.982 50.9547C174.176 51.1475 174.412 51.2451 174.684 51.2451C174.957 51.2451 175.193 51.1475 175.387 50.9547C175.58 50.7607 175.678 50.5245 175.678 50.2522C175.678 49.9853 175.58 49.7519 175.387 49.559C175.193 49.365 174.957 49.2675 174.684 49.2675Z" fill="#0A2C75"/>
<path d="M210.467 45.1866C210.22 44.7679 209.871 44.4326 209.428 44.1915C208.984 43.9509 208.509 43.8303 208.015 43.8303C207.711 43.8303 207.412 43.8747 207.134 43.9635L205.169 44.5652V41.9037H203.363V47.1258H178.879C178.759 47.1258 178.657 47.0875 178.562 47.0053C178.467 46.9225 178.41 46.8277 178.385 46.739V43.8238H176.56V46.7264C176.56 46.8403 176.522 46.9291 176.446 47.0113C176.37 47.0875 176.275 47.1258 176.167 47.1258H172.758C172.605 47.1258 172.479 47.0749 172.377 46.9735C172.269 46.8721 172.225 46.7516 172.225 46.5932V44.7811H170.387V46.5932C170.387 47.0179 170.495 47.4174 170.711 47.7719C170.92 48.133 171.211 48.4185 171.572 48.6273C171.934 48.8366 172.333 48.938 172.758 48.938H176.338C176.788 48.938 177.2 48.8048 177.567 48.5325C177.967 48.8048 178.41 48.938 178.879 48.938H209.529C209.77 48.938 209.992 48.881 210.195 48.7604C210.397 48.6399 210.562 48.4755 210.683 48.2727C210.797 48.0634 210.86 47.8415 210.86 47.6009V46.6502C210.86 46.1115 210.727 45.6173 210.467 45.1866ZM208.902 46.0989C209.003 46.2639 209.054 46.4474 209.054 46.6502V47.0371C209.054 47.0749 209.041 47.0941 208.971 47.1258H205.169V46.4414L207.66 45.6869C207.787 45.6556 207.907 45.6365 208.021 45.6365C208.211 45.6365 208.388 45.6808 208.547 45.757C208.699 45.8392 208.82 45.9532 208.902 46.0989Z" fill="#0A2C75"/>
<path d="M0 11.0267H2.48888V7.6797H6.39317V5.40562H2.48888V3.26032H6.67921V1.01473H0V11.0267Z" fill="#03847D"/>
<path d="M12.7578 4.11176C12.2427 3.83997 11.6706 3.70407 11.041 3.70407C10.4596 3.70407 9.89685 3.80654 9.35327 4.01148C8.81023 4.21697 8.31431 4.52877 7.86607 4.94851L9.12476 6.30748C9.35327 6.08774 9.62013 5.91404 9.9259 5.78526C10.2306 5.65649 10.5358 5.59183 10.841 5.59183C11.1649 5.59183 11.4493 5.66142 11.692 5.79951C11.9353 5.9376 12.057 6.1546 12.057 6.44995L12.0712 6.69325C11.5561 6.60777 11.0602 6.56448 10.5835 6.56448C9.62999 6.56448 8.86722 6.7486 8.29513 7.11519C7.72305 7.48233 7.43701 8.0429 7.43701 8.79581C7.43701 9.51092 7.66771 10.0901 8.13074 10.534C8.59323 10.9773 9.25353 11.1987 10.1117 11.1987C10.6646 11.1987 11.1391 11.0989 11.5347 10.8984C11.9304 10.6984 12.2186 10.4216 12.4 10.0688V11.0272H14.4165V6.82202C14.4165 6.24063 14.2686 5.71129 13.9732 5.23455C13.6779 4.75782 13.2724 4.38355 12.7578 4.11176ZM12.0854 8.22373C12.0854 8.61498 11.9682 8.9202 11.7347 9.13939C11.5013 9.35858 11.1698 9.46817 10.7413 9.46817C10.3878 9.46817 10.1402 9.39639 9.99713 9.25337C9.85411 9.11035 9.78287 8.90596 9.78287 8.63855C9.78287 8.124 10.1878 7.86646 10.9983 7.86646C11.2936 7.86646 11.6564 7.90481 12.0854 7.98043V8.22373Z" fill="#03847D"/>
<path d="M26.4391 4.0619C26.072 3.82353 25.65 3.70407 25.1733 3.70407C24.6489 3.70407 24.1672 3.82353 23.7288 4.0619C23.2899 4.30026 22.9754 4.61041 22.7847 4.99126C22.6318 4.61041 22.3606 4.30026 21.9693 4.0619C21.5786 3.82353 21.1402 3.70407 20.6536 3.70407C20.1769 3.70407 19.738 3.81147 19.3374 4.02628C18.9374 4.24053 18.6415 4.51945 18.4508 4.86303V3.87559H16.1055V11.0272H18.5078V7.12286C18.5078 6.7601 18.6037 6.45762 18.7944 6.21432C18.9851 5.97103 19.247 5.84938 19.5807 5.84938C19.8761 5.84938 20.1292 5.96883 20.3385 6.2072C20.5484 6.44557 20.6536 6.75079 20.6536 7.12286V11.0272H23.0565V7.12286C23.0565 6.76997 23.1568 6.46968 23.3568 6.22145C23.5573 5.97377 23.8286 5.84938 24.1721 5.84938C24.4675 5.84938 24.713 5.96883 24.9086 6.2072C25.1037 6.44557 25.2018 6.75079 25.2018 7.12286V11.0272H27.6046V6.4505C27.6046 5.92609 27.5022 5.45648 27.2972 5.04167C27.0923 4.62685 26.8057 4.30026 26.4391 4.0619Z" fill="#03847D"/>
<rect x="29.2207" y="3.87597" width="2.40285" height="7.15157" fill="#03847D"/>
<path d="M30.4224 0C30.0311 0 29.6952 0.138089 29.4141 0.414814C29.1325 0.691539 28.9922 1.02471 28.9922 1.41596C28.9922 1.80666 29.1325 2.14092 29.4141 2.4171C29.6952 2.69382 30.0311 2.83191 30.4224 2.83191C30.8038 2.83191 31.1326 2.69382 31.4093 2.4171C31.686 2.14092 31.8241 1.80666 31.8241 1.41596C31.8241 1.03457 31.686 0.703046 31.4093 0.421937C31.1326 0.140828 30.8038 0 30.4224 0Z" fill="#03847D"/>
<rect x="33.2393" y="1.01473" width="2.40285" height="10.012" fill="#03847D"/>
<path d="M40.3485 8.13825L38.8898 3.70407H36.3154L39.1325 10.8984L39.0756 11.0699C38.9895 11.3368 38.8564 11.5159 38.675 11.6064C38.4936 11.6973 38.1791 11.7423 37.7314 11.7423H36.4869V13.8881H38.1604C38.9895 13.8881 39.6427 13.7325 40.12 13.4229C40.5962 13.1133 40.9682 12.6009 41.2351 11.8853L44.2533 3.70407H41.679L40.3485 8.13825Z" fill="#03847D"/>
<path d="M53.6789 8.18054L51.2618 1.01473H48.0293V11.0267H50.4891V4.46202L52.7495 11.0267H54.5945L56.9689 4.46202V11.0267H59.4287V1.01473H56.2823L53.6789 8.18054Z" fill="#03847D"/>
<path d="M64.7492 3.7318C63.9957 3.7318 63.3212 3.88468 62.725 4.1899C62.1293 4.49512 61.6646 4.92637 61.3304 5.48421C60.9967 6.04204 60.8301 6.68317 60.8301 7.40813C60.8301 8.15173 60.9967 8.8071 61.3304 9.3748C61.6646 9.94195 62.1343 10.3831 62.7398 10.6976C63.3453 11.0121 64.0483 11.17 64.8489 11.17C65.5832 11.17 66.2698 11.0647 66.9087 10.8549C67.5477 10.6455 68.0195 10.3639 68.3247 10.011L67.0233 8.58079C66.8227 8.77148 66.5317 8.92656 66.1509 9.04602C65.7695 9.16493 65.3689 9.22465 64.9492 9.22465C64.5108 9.22465 64.1196 9.11506 63.7765 8.89532C63.433 8.67614 63.2614 8.39996 63.2614 8.06624H68.5822C68.6107 7.81801 68.6255 7.58458 68.6255 7.36484C68.6255 6.21136 68.2819 5.31762 67.5953 4.68307C66.9087 4.04907 65.9602 3.7318 64.7492 3.7318ZM63.2329 6.607C63.2329 6.4448 63.302 6.27822 63.4406 6.1067C63.5782 5.93464 63.7645 5.78943 63.9979 5.66997C64.2319 5.55106 64.4818 5.49133 64.7492 5.49133C65.2067 5.49133 65.5667 5.60147 65.8292 5.82066C66.0911 6.03985 66.2221 6.30178 66.2221 6.607H63.2329Z" fill="#03847D"/>
<path d="M75.0045 4.87628C74.976 4.75299 74.8566 4.59736 74.6472 4.4116C74.4368 4.22584 74.1678 4.06638 73.839 3.93268C73.5096 3.79897 73.1639 3.73212 72.8017 3.73212C71.7435 3.73212 70.9304 4.06364 70.3632 4.72614C69.7955 5.38918 69.5122 6.27361 69.5122 7.37941C69.5122 8.57125 69.784 9.50115 70.3276 10.1686C70.8706 10.836 71.686 11.1697 72.7732 11.1697C73.2976 11.1697 73.7864 11.0623 74.239 10.8481C74.6922 10.6333 75.0095 10.345 75.1903 9.98227V11.0267H77.3504V1.01473H75.0045V4.87628ZM74.5754 8.6096C74.2894 8.92414 73.9223 9.08141 73.474 9.08141C73.0066 9.08141 72.6351 8.92688 72.3584 8.61673C72.0816 8.30713 71.9435 7.8945 71.9435 7.37941C71.9435 6.8835 72.0794 6.48567 72.3512 6.18538C72.623 5.88455 72.9732 5.7344 73.4028 5.7344C73.8888 5.7344 74.2773 5.88455 74.5683 6.18538C74.8587 6.48567 75.0045 6.8835 75.0045 7.37941C75.0045 7.88519 74.8615 8.29452 74.5754 8.6096Z" fill="#03847D"/>
<rect x="79.0234" y="3.87597" width="2.40285" height="7.15157" fill="#03847D"/>
<path d="M80.2246 0C79.8334 0 79.4975 0.138089 79.2164 0.414814C78.9347 0.691539 78.7944 1.02471 78.7944 1.41596C78.7944 1.80666 78.9347 2.14092 79.2164 2.4171C79.4975 2.69382 79.8334 2.83191 80.2246 2.83191C80.606 2.83191 80.9348 2.69382 81.2115 2.4171C81.4883 2.14092 81.6264 1.80666 81.6264 1.41596C81.6264 1.03457 81.4883 0.703046 81.2115 0.421937C80.9348 0.140828 80.606 0 80.2246 0Z" fill="#03847D"/>
<path d="M86.6757 5.67825C87.2757 5.67825 87.7628 5.94566 88.1349 6.47938L89.8933 5.23494C89.5887 4.69135 89.147 4.26722 88.5711 3.962C87.9935 3.65678 87.3332 3.50445 86.5891 3.50445C85.8263 3.50445 85.1518 3.66665 84.566 3.9905C83.9791 4.3149 83.5259 4.77026 83.207 5.35659C82.887 5.94292 82.7275 6.61254 82.7275 7.366C82.7275 8.11891 82.887 8.78908 83.207 9.37541C83.5259 9.96174 83.9791 10.4171 84.566 10.7415C85.1518 11.0653 85.8263 11.2275 86.5891 11.2275C87.3332 11.2275 87.9935 11.0752 88.5711 10.77C89.147 10.4648 89.5887 10.0406 89.8933 9.49706L88.1349 8.25261C87.7628 8.78689 87.2757 9.05375 86.6757 9.05375C86.2176 9.05375 85.851 8.90141 85.5737 8.59619C85.297 8.29097 85.1589 7.88054 85.1589 7.366C85.1589 6.85091 85.297 6.44102 85.5737 6.1358C85.851 5.83058 86.2176 5.67825 86.6757 5.67825Z" fill="#03847D"/>
<path d="M92.0816 0C91.6903 0 91.3544 0.138089 91.0733 0.414814C90.7916 0.691539 90.6514 1.02471 90.6514 1.41596C90.6514 1.80666 90.7916 2.14092 91.0733 2.4171C91.3544 2.69382 91.6903 2.83191 92.0816 2.83191C92.4629 2.83191 92.7917 2.69382 93.0685 2.4171C93.3452 2.14092 93.4833 1.80666 93.4833 1.41596C93.4833 1.03457 93.3452 0.703046 93.0685 0.421937C92.7917 0.140828 92.4629 0 92.0816 0Z" fill="#03847D"/>
<rect x="90.8813" y="3.87597" width="2.40285" height="7.15157" fill="#03847D"/>
<path d="M100.792 4.02573C100.41 3.81093 99.9957 3.70407 99.5474 3.70407C99.0707 3.70407 98.6268 3.80873 98.2175 4.01861C97.8071 4.22848 97.5019 4.50959 97.3018 4.86248V3.87559H94.9565V11.0272H97.3588L97.3451 6.99354C97.3451 6.679 97.4569 6.4094 97.6811 6.18528C97.9052 5.96116 98.1742 5.84938 98.4893 5.84938C98.8039 5.85869 99.0707 5.97322 99.2899 6.19241C99.5091 6.41214 99.6192 6.679 99.6192 6.99354V11.0272H102.022V6.14966C102.022 5.70143 101.912 5.28935 101.693 4.91235C101.474 4.53589 101.173 4.24053 100.792 4.02573Z" fill="#03847D"/>
<path d="M111.02 7.36484C111.02 6.21136 110.676 5.31762 109.99 4.68307C109.303 4.04907 108.355 3.7318 107.144 3.7318C106.39 3.7318 105.716 3.88468 105.119 4.1899C104.524 4.49512 104.059 4.92637 103.725 5.48421C103.391 6.04204 103.225 6.68317 103.225 7.40813C103.225 8.15173 103.391 8.8071 103.725 9.3748C104.059 9.94195 104.529 10.3831 105.134 10.6976C105.74 11.0121 106.443 11.17 107.243 11.17C107.978 11.17 108.664 11.0647 109.303 10.8549C109.942 10.6455 110.414 10.3639 110.719 10.011L109.418 8.58079C109.217 8.77148 108.926 8.92656 108.545 9.04602C108.164 9.16493 107.763 9.22465 107.344 9.22465C106.905 9.22465 106.514 9.11506 106.171 8.89532C105.827 8.67614 105.656 8.39996 105.656 8.06624H110.977C111.005 7.81801 111.02 7.58458 111.02 7.36484ZM105.627 6.607C105.627 6.4448 105.696 6.27822 105.835 6.1067C105.973 5.93464 106.159 5.78943 106.392 5.66997C106.626 5.55106 106.876 5.49133 107.144 5.49133C107.601 5.49133 107.961 5.60147 108.224 5.82066C108.486 6.03985 108.617 6.30178 108.617 6.607H105.627Z" fill="#03847D"/>
</svg>
