<svg width="179px" height="54px" viewBox="0 0 179 54" fill="none" xmlns="http://www.w3.org/2000/svg" transform="rotate(0) scale(1, 1)">
<g clip-path="url(#clip0_538_598)">
<path d="M176.561 0.434082C175.643 0.434082 174.946 0.887078 174.946 1.86342V19.8614H178.094V0.730932C177.619 0.52674 176.989 0.434082 176.563 0.434082" fill="#000000"/>
<path d="M29.7447 10.7106C29.7447 10.7106 13.9202 1.59915 5.57389 9.13536C5.31532 9.45623 5.28278 9.91438 5.50882 10.2679C5.59102 10.4034 7.66476 13.6001 12.6205 13.6001C15.095 13.6001 17.0643 12.4144 18.9668 11.2614C20.8076 10.1512 22.5389 9.10104 24.6863 9.10104C26.5579 9.10104 28.1368 9.83545 29.7447 10.7106Z" fill="#d6d1ed"/>
<path d="M47.7269 15.7811C47.5796 15.3968 47.1995 15.1394 46.7799 15.16C46.6224 15.1651 42.8208 15.3642 40.3429 19.6659C39.1048 21.8142 39.1459 24.1152 39.1905 26.3425C39.2299 28.4942 39.271 30.5224 38.1973 32.3858C37.2623 34.0091 35.8375 35.0129 34.2792 35.9703C34.2929 35.9618 50.0626 26.7903 47.7252 15.7828" fill="#d6d1ed"/>
<path d="M21.0834 40.6581C19.8453 38.5098 17.8366 37.3945 15.8896 36.3204C14.0093 35.2788 12.2353 34.3008 11.1633 32.4373C10.2283 30.8141 10.0725 29.0759 10.0245 27.245C10.0245 27.2501 10.0639 45.5313 20.7477 49.0077C21.1536 49.0712 21.5663 48.8704 21.7581 48.4963C21.8334 48.3574 23.5595 44.9582 21.0834 40.6581Z" fill="#d6d1ed"/>
<path d="M5.57385 9.13542C10.2813 3.32884 17.2509 0 24.6879 0C32.125 0 39.086 3.32884 43.7934 9.13542C44.0743 9.48375 44.0811 9.97793 43.8106 10.3348C43.7198 10.4532 41.5108 13.2965 36.7485 13.2965C34.3768 13.2965 32.4212 12.2052 30.5393 11.1482C30.2721 11.0006 30.0084 10.853 29.7447 10.7089C29.7447 10.7089 13.9202 1.59921 5.57385 9.13371" fill="#6b47f5"/>
<path d="M47.7269 15.7811C50.3897 22.77 49.7835 30.4812 46.0658 36.9347C42.3516 43.3813 35.9899 47.7637 28.618 48.9459C28.1779 49.0163 27.7446 48.7743 27.5717 48.3608C27.5152 48.2235 26.1623 44.8827 28.5426 40.7525C29.7276 38.6935 31.6489 37.5438 33.5052 36.4388C33.7672 36.2826 34.0258 36.1265 34.2809 35.9686C34.2809 35.9686 50.0661 26.792 47.7269 15.7811Z" fill="#6b47f5"/>
<path d="M20.7477 49.006C13.3757 47.8237 7.01409 43.4413 3.29642 36.9879C-0.417828 30.5413 -1.02574 22.83 1.63879 15.8412C1.79805 15.4225 2.22273 15.1703 2.66796 15.2269C2.81523 15.2475 6.37878 15.7417 8.75905 19.8735C9.94405 21.9309 9.97829 24.1736 10.0074 26.3356C10.0125 26.641 10.0177 26.943 10.0262 27.2433C10.0262 27.2433 10.0639 45.5296 20.7494 49.006" fill="#6b47f5"/>
<path d="M74.2609 43.2543C74.0588 43.4019 73.7592 43.625 73.2985 43.7914C72.8379 43.9578 72.3413 44.0402 71.8087 44.0402C71.4765 44.0402 71.1597 44.0042 70.8566 43.9287C70.5535 43.8549 70.2864 43.7262 70.0569 43.5409C69.8257 43.3573 69.6476 43.1119 69.5192 42.8082C69.3908 42.5045 69.3257 42.1132 69.3257 41.6328V35.4642H74.6256C74.6804 35.3543 74.7541 35.1656 74.8465 34.8979C74.939 34.6302 74.9853 34.3402 74.9853 34.0262C74.9853 33.5475 74.8602 33.182 74.6137 32.9332C74.3654 32.6844 73.9373 32.5591 73.3293 32.5591H69.3274V28.9369C69.2349 28.8991 69.0466 28.8391 68.7623 28.7567C68.4763 28.6744 68.1698 28.6332 67.8376 28.6332C67.3222 28.6332 66.918 28.7481 66.6235 28.9781C66.329 29.208 66.1817 29.5821 66.1817 30.0986V32.5609H64.5926C63.9847 32.5609 63.5565 32.6861 63.3082 32.9349C63.0599 33.1837 62.9366 33.5492 62.9366 34.028C62.9366 34.342 62.9829 34.6319 63.0736 34.8996C63.1661 35.1673 63.2397 35.3561 63.2945 35.4659H66.1817V42.2694C66.1817 43.6335 66.5961 44.7351 67.4232 45.5742C68.2503 46.4133 69.4747 46.832 71.0946 46.832C71.6649 46.832 72.1889 46.7805 72.6683 46.6792C73.1461 46.578 73.5794 46.4527 73.9664 46.3052C74.3534 46.1576 74.6787 46.0015 74.9459 45.835C75.213 45.6686 75.4202 45.5313 75.5675 45.4198C75.5675 45.4198 75.4408 44.8467 75.0897 44.2684C74.7404 43.6902 74.2643 43.2509 74.2643 43.2509" fill="#000000"/>
<path d="M146.035 32.5625C145.501 32.5625 145.087 32.6775 144.794 32.9091C144.499 33.1408 144.352 33.5131 144.352 34.0296V46.4475H147.499V32.8679C147.407 32.8319 147.224 32.7701 146.948 32.6878C146.672 32.6054 146.368 32.5625 146.037 32.5625" fill="#000000"/>
<path d="M145.926 26.339C145.392 26.339 144.941 26.5243 144.573 26.8915C144.205 27.2604 144.022 27.7117 144.022 28.2471C144.022 28.7824 144.205 29.2337 144.573 29.6026C144.941 29.9715 145.392 30.1551 145.926 30.1551C146.46 30.1551 146.91 29.9715 147.279 29.6026C147.647 29.2337 147.83 28.7824 147.83 28.2471C147.83 27.7117 147.645 27.2604 147.279 26.8915C146.91 26.5226 146.46 26.339 145.926 26.339Z" fill="#000000"/>
<path d="M174.965 44.2186C174.275 44.2889 172.494 44.3713 172.299 44.3747C171.323 44.3936 170.276 44.3456 169.353 43.999C168.543 43.6952 167.78 43.0278 167.614 42.1629C167.59 42.036 167.578 41.9056 167.581 41.77C167.6 40.8897 168.175 40.0575 168.936 39.6595C169.818 39.1962 170.973 39.2562 171.938 39.3146C172.83 39.3695 173.996 39.4776 174.953 39.5857C174.958 39.9683 174.962 40.2686 174.965 40.2686V44.2169V44.2186ZM176.04 33.5217C175.395 33.0618 174.628 32.7255 173.736 32.5128C172.842 32.3017 171.854 32.1953 170.768 32.1953C169.865 32.1953 169.121 32.2502 168.533 32.3618C167.942 32.4716 167.473 32.6243 167.126 32.8182C166.775 33.0121 166.533 33.2334 166.394 33.4822C166.257 33.731 166.187 33.985 166.187 34.2424C166.187 34.613 166.283 34.9253 166.477 35.1827C166.67 35.4435 166.823 35.6168 166.932 35.7077C167.134 35.5413 167.554 35.3405 168.187 35.0986C168.823 34.8601 169.663 34.74 170.713 34.74C171.336 34.74 171.908 34.7863 172.424 34.879C172.938 34.9733 173.379 35.1398 173.749 35.3766C174.116 35.6168 174.407 35.9497 174.619 36.3718C174.71 36.5554 174.777 36.763 174.83 36.9861C173.203 36.7905 171.326 36.6309 170.246 36.7339C169.091 36.842 167.913 37.0667 166.934 37.6896C164.822 39.028 164.1 41.8815 165.328 44.0521C165.922 45.1006 166.975 45.8298 168.109 46.2365C169.24 46.6414 170.456 46.753 171.658 46.7993C173.508 46.8714 175.378 46.7547 177.215 46.5368C177.609 46.4921 177.9 46.451 178.085 46.4132V38.0877C178.085 37.0204 177.905 36.1075 177.547 35.3491C177.19 34.5941 176.686 33.985 176.044 33.5234" fill="#000000"/>
<path d="M86.349 44.2186C85.6589 44.2889 83.878 44.3713 83.6827 44.3747C82.7067 44.3936 81.6604 44.3456 80.7374 43.9972C79.9274 43.6935 79.1637 43.026 78.9976 42.1612C78.9736 42.0342 78.9616 41.9038 78.965 41.7683C78.9839 40.888 79.5592 40.0558 80.3196 39.6577C81.2014 39.1944 82.3573 39.2528 83.3214 39.3128C84.2136 39.3677 85.3798 39.4758 86.337 39.5839C86.3404 39.9666 86.3456 40.2669 86.349 40.2669V44.2151V44.2186ZM110.874 32.5453C110.378 32.5042 109.845 32.6363 109.504 32.9983C109.261 33.2557 109.138 33.6006 109.02 33.9352C108.035 36.7184 107.052 39.4999 106.068 42.283C105.035 39.306 104.002 36.3306 102.97 33.3535C102.912 33.1854 102.848 33.0086 102.716 32.8885C102.566 32.7513 102.355 32.7101 102.155 32.6758C101.389 32.5419 100.49 32.4475 99.9439 32.9983C99.699 33.2437 99.5723 33.58 99.4525 33.9061C98.4764 36.5588 97.526 39.2202 96.6013 41.8918C96.1184 40.6547 96.1714 40.6701 95.6885 39.4329C95.632 39.2905 95.5704 39.1378 95.4437 39.052C95.3358 38.98 95.1252 38.9045 95.0002 38.8701C93.5583 38.4686 91.1849 37.7805 89.4382 37.343C89.3731 36.5897 89.2053 35.9239 88.933 35.3491C88.5734 34.5941 88.0717 33.985 87.4278 33.5234C86.7822 33.0635 86.0151 32.7272 85.1229 32.5145C84.229 32.3034 83.2409 32.197 82.1553 32.197C81.2528 32.197 80.5079 32.2519 79.9206 32.3635C79.3298 32.475 78.8606 32.626 78.5129 32.8199C78.1619 33.0138 77.9187 33.2351 77.7817 33.4839C77.643 33.7327 77.5745 33.9867 77.5745 34.2441C77.5745 34.6147 77.6704 34.927 77.8639 35.1844C78.0574 35.4452 78.2081 35.6185 78.3194 35.7095C78.5215 35.543 78.9411 35.3405 79.5764 35.1003C80.2117 34.8618 81.0525 34.74 82.1022 34.74C82.7255 34.74 83.2975 34.7863 83.8129 34.879C84.3266 34.9733 84.7684 35.1398 85.1383 35.3766C85.5048 35.6168 85.7959 35.9497 86.0082 36.3718C86.099 36.5554 86.1658 36.763 86.2171 36.9861C84.5903 36.7905 82.7135 36.6309 81.633 36.7338C80.4788 36.8437 79.3007 37.0667 78.3212 37.6896C76.2097 39.028 75.4871 41.8815 76.7149 44.0521C77.3074 45.1005 78.3623 45.8298 79.4959 46.2365C80.6278 46.6414 81.8436 46.753 83.0457 46.7993C84.8951 46.8713 86.7651 46.7547 88.6025 46.5385C88.9964 46.4939 89.2875 46.4527 89.4725 46.4132V40.0816C90.9965 40.4316 92.7997 40.9326 92.8459 40.9755C93.2466 41.3479 94.9248 46.451 94.9625 46.451C96.0464 46.451 97.1287 46.4527 98.2127 46.4544C99.2658 43.3297 100.268 40.1879 101.22 37.0307C102.172 40.1948 103.194 43.3366 104.285 46.4544C105.374 46.4544 106.463 46.4561 107.551 46.4578C109.133 41.9708 110.713 37.482 112.296 32.9949C112.292 32.9932 112.287 32.9915 112.284 32.9898C111.835 32.7839 111.369 32.5934 110.878 32.5522" fill="#000000"/>
<path d="M92.0599 32.5642C91.5273 32.5642 91.1317 32.7118 90.8731 33.0069C90.6163 33.3003 90.5786 33.4942 90.5786 33.8803C90.5786 33.9524 90.9416 35.1655 91.4896 36.7047L95.0806 37.7325C94.399 35.821 93.5719 33.2163 93.4692 32.8388C93.3973 32.801 93.2466 32.7444 93.0137 32.6723C92.7842 32.5985 92.4674 32.5625 92.0616 32.5625" fill="#000000"/>
<path d="M125.567 32.5385C125.051 32.5385 124.647 32.6534 124.353 32.8851C124.086 33.0944 123.928 33.4221 123.913 33.8631V40.5242C123.913 41.7786 123.613 42.7326 123.015 43.3863C122.418 44.0401 121.52 44.3678 120.323 44.3678C119.126 44.3678 118.253 44.0401 117.647 43.3863C117.041 42.7309 116.736 41.7768 116.736 40.5242V36.4661V32.8439C116.643 32.8079 116.455 32.7478 116.171 32.6637C115.885 32.5814 115.577 32.5385 115.246 32.5385C114.731 32.5385 114.326 32.6534 114.032 32.8851C113.739 33.115 113.594 33.4839 113.59 33.9935V41.3256C113.59 42.247 113.756 43.0723 114.087 43.8016C114.419 44.5291 114.883 45.1469 115.481 45.6548C116.078 46.1609 116.792 46.5487 117.619 46.8164C118.448 47.0841 119.349 47.2179 120.325 47.2179C121.301 47.2179 122.198 47.0841 123.017 46.8164C123.836 46.5487 124.545 46.1609 125.142 45.6548C125.74 45.1469 126.209 44.5291 126.55 43.8016C126.891 43.0723 127.06 42.2487 127.06 41.3256V32.8422C126.968 32.8061 126.779 32.7461 126.495 32.662C126.209 32.5796 125.901 32.5367 125.57 32.5367" fill="#000000"/>
<path d="M140.522 33.7191C139.924 33.2129 139.215 32.8251 138.396 32.5574C137.578 32.2897 136.681 32.1559 135.706 32.1559C134.732 32.1559 133.829 32.2897 133.002 32.5574C132.173 32.8251 131.461 33.2129 130.863 33.7191C130.266 34.227 129.8 34.8447 129.47 35.5722C129.139 36.3015 128.973 37.1251 128.973 38.0483V45.3803C128.975 45.8899 129.122 46.2605 129.415 46.4888C129.709 46.7187 130.113 46.8354 130.629 46.8354C130.959 46.8354 131.268 46.7942 131.554 46.7118C131.838 46.6295 132.028 46.5694 132.119 46.5316V42.9094V38.8513C132.119 37.597 132.422 36.643 133.03 35.9892C133.636 35.3354 134.53 35.0077 135.706 35.0077C136.883 35.0077 137.801 35.3354 138.396 35.9892C138.996 36.6447 139.294 37.5987 139.294 38.8513V45.5141H139.295C139.311 45.9551 139.468 46.2828 139.736 46.4922C140.03 46.7221 140.434 46.8388 140.95 46.8388C141.28 46.8388 141.588 46.7976 141.874 46.7153C142.159 46.6329 142.349 46.5728 142.439 46.5351V38.0517C142.439 37.1303 142.27 36.3049 141.929 35.5757C141.588 34.8481 141.119 34.2304 140.522 33.7225" fill="#000000"/>
<path d="M108.878 17.1916H105.889C105.17 17.1916 102.203 17.1469 102.203 13.8747C102.203 11.6973 103.548 10.3417 105.461 10.3417C107.669 10.3417 108.878 11.9598 108.878 15.196V17.1916ZM112.025 14.9592C112.025 10.6694 110.083 7.69751 105.73 7.69751C102.316 7.69751 99.0037 9.61931 99.0037 13.9811C99.0037 18.3429 102.648 19.8615 105.946 19.8615H108.879V20.2922C108.879 22.0149 107.812 23.7977 105.357 23.7977C103.975 23.7977 103.031 23.434 101.033 22.4199C99.949 23.7566 100.615 24.8513 101.66 25.3712C102.934 26.0061 104.341 26.3167 105.763 26.3373C110.333 26.4042 112.027 23.6708 112.027 19.0893V14.9575L112.025 14.9592Z" fill="#000000"/>
<path d="M72.4183 13.631C72.4183 14.7464 72.1358 15.618 71.5707 16.2478C71.0056 16.8775 70.2196 17.1915 69.2161 17.1915C68.2126 17.1915 67.4848 16.9135 66.9283 16.3559C66.3717 15.7982 66.0943 15.0518 66.0943 14.1166C66.0943 12.9481 66.5344 12.0576 67.4129 11.4467C68.2914 10.8358 69.5757 10.5304 71.2607 10.5304H72.4183V13.631ZM78.5008 19.8872C78.893 19.8906 79.4341 19.8838 79.8177 19.8872C81.1842 19.8975 82.6107 19.9455 83.9121 19.4565C84.6296 19.1871 85.1861 18.7101 85.58 18.0272C86.2256 19.2506 87.3301 19.8614 88.8901 19.8614H97.3563V8.15561C97.1954 8.06639 96.8751 7.99432 96.6046 7.93941C96.334 7.8845 96.0754 7.85876 95.8237 7.85876C95.3391 7.85876 94.9487 7.98059 94.6524 8.22253C94.3562 8.46448 94.2089 8.81967 94.2089 9.28811V17.1898H90.9073C89.6402 17.1898 87.974 17.2481 87.4465 15.7879C87.2582 15.2663 87.164 14.5387 87.164 13.6036V8.15561C87.003 8.06639 86.6828 7.99432 86.4139 7.93941C86.1451 7.88622 85.8848 7.85876 85.6331 7.85876C85.1485 7.85876 84.758 7.98059 84.4618 8.22253C84.1655 8.46448 84.0183 8.81967 84.0183 9.28811V13.6036C84.0183 14.5199 83.9275 15.2405 83.7494 15.7605C83.3299 16.9805 82.0045 17.1812 80.8606 17.2001C79.9992 17.2138 78.9512 17.2293 78.0967 17.1898C77.4357 17.1589 76.6703 17.0216 76.1959 16.5155C75.7747 16.0659 75.564 15.2834 75.564 14.1698V7.85876H71.2093C68.6424 7.85876 66.62 8.41128 65.1405 9.51803C63.661 10.6248 62.9195 12.1485 62.9195 14.0892C62.9195 15.2405 63.1746 16.2461 63.6867 17.1092C64.1987 17.9722 64.9196 18.6466 65.8529 19.1322C66.7861 19.6178 67.9677 19.8597 69.187 19.8597C71.2333 19.8597 72.8379 19.2214 74.0057 17.9448C74.3825 18.5557 74.9065 19.0275 75.5794 19.3604C76.4853 19.8083 77.4956 19.8786 78.4991 19.8855" fill="#000000"/>
<path d="M68.3 6.29734C68.7898 6.29734 69.2042 6.12232 69.5432 5.77399C69.8823 5.42395 70.0518 5.01385 70.0518 4.54198C70.0518 4.07011 69.8823 3.63599 69.5432 3.29624C69.2042 2.95649 68.7898 2.78662 68.3 2.78662C67.8103 2.78662 67.4233 2.95649 67.0842 3.29624C66.7452 3.63599 66.5756 4.05124 66.5756 4.54198C66.5756 5.03273 66.7452 5.42395 67.0842 5.77399C67.4233 6.12404 67.8291 6.29734 68.3 6.29734Z" fill="#000000"/>
<path d="M73.0091 6.29734C73.4989 6.29734 73.9184 6.12232 74.2661 5.77399C74.6154 5.42395 74.7883 5.01385 74.7883 4.54198C74.7883 4.07011 74.6137 3.63599 74.2661 3.29624C73.9167 2.95649 73.4989 2.78662 73.0091 2.78662C72.5194 2.78662 72.1324 2.95649 71.7933 3.29624C71.4543 3.63599 71.2847 4.05124 71.2847 4.54198C71.2847 5.03273 71.4543 5.42395 71.7933 5.77399C72.1324 6.12404 72.5382 6.29734 73.0091 6.29734Z" fill="#000000"/>
<path d="M95.7741 6.24412C96.2639 6.24412 96.6783 6.0691 97.0174 5.72077C97.3564 5.37073 97.526 4.96063 97.526 4.48876C97.526 4.01689 97.3564 3.60679 97.0174 3.25675C96.6783 2.90842 96.2639 2.7334 95.7741 2.7334C95.2844 2.7334 94.8597 2.90842 94.5018 3.25675C94.1439 3.60679 93.9641 4.01689 93.9641 4.48876C93.9641 4.96063 94.1422 5.37073 94.5018 5.72077C94.8597 6.07081 95.2827 6.24412 95.7741 6.24412Z" fill="#000000"/>
<path d="M161.72 32.5625C161.204 32.5625 160.798 32.6826 160.505 32.9229C160.211 33.1631 160.064 33.532 160.064 34.0296V39.9477C160.064 41.2192 159.742 42.1835 159.098 42.8373C158.454 43.4928 157.57 43.8188 156.447 43.8188C155.233 43.8188 154.336 43.4962 153.757 42.851C153.176 42.2058 152.887 41.3393 152.887 40.2514V32.8662C152.794 32.8302 152.606 32.7684 152.32 32.6861C152.034 32.6037 151.726 32.5608 151.395 32.5608C150.88 32.5608 150.476 32.6809 150.181 32.9211C149.887 33.1614 149.739 33.5303 149.739 34.0279V40.8863C149.739 41.7906 149.892 42.5919 150.195 43.292C150.498 43.9921 150.916 44.5772 151.45 45.0474C151.983 45.5175 152.627 45.8779 153.382 46.1267C154.135 46.3755 154.955 46.5007 155.839 46.5007C156.778 46.5007 157.637 46.3394 158.42 46.0168C159.202 45.6943 159.776 45.2653 160.146 44.7299C160.146 48.6404 159.625 50.9157 155.536 50.9157C153.267 50.9157 151.69 50.4095 151.065 50.1419C150.964 50.3615 150.486 51.2846 150.748 52.0757C150.921 52.5973 151.4 52.8495 151.89 52.9937C153.332 53.4226 156.267 53.6131 158.13 53.3077C161.997 52.6728 163.211 50.0269 163.211 44.9787V32.8645C163.119 32.8285 162.93 32.7667 162.646 32.6843C162.36 32.602 162.052 32.5591 161.721 32.5591" fill="#000000"/>
<path d="M161.279 6.29734C161.769 6.29734 162.189 6.12232 162.536 5.77399C162.884 5.42395 163.059 5.01385 163.059 4.54198C163.059 4.07011 162.884 3.63599 162.536 3.29624C162.187 2.95649 161.769 2.78662 161.279 2.78662C160.79 2.78662 160.403 2.95649 160.064 3.29624C159.725 3.63599 159.555 4.05124 159.555 4.54198C159.555 5.03273 159.725 5.42395 160.064 5.77399C160.403 6.12404 160.809 6.29734 161.279 6.29734Z" fill="#000000"/>
<path d="M156.569 6.29734C157.058 6.29734 157.473 6.12232 157.812 5.77399C158.151 5.42395 158.32 5.01385 158.32 4.54198C158.32 4.07011 158.151 3.63599 157.812 3.29624C157.473 2.95649 157.058 2.78662 156.569 2.78662C156.079 2.78662 155.692 2.95649 155.353 3.29624C155.014 3.63599 154.844 4.05124 154.844 4.54198C154.844 5.03273 155.014 5.42395 155.353 5.77399C155.692 6.12404 156.098 6.29734 156.569 6.29734Z" fill="#000000"/>
<path d="M172.852 19.8614V0.730932C172.691 0.641705 172.371 0.569638 172.1 0.514729C171.831 0.461536 171.571 0.434082 171.319 0.434082C170.835 0.434082 170.444 0.555911 170.148 0.797852C169.852 1.04151 169.705 1.39498 169.705 1.86342V17.1915H160.684V8.19164C160.433 8.08869 160.18 7.9926 159.916 7.93082C159.656 7.87077 159.394 7.86047 159.129 7.86047C158.623 7.86047 158.235 7.9823 157.957 8.22253C157.678 8.46618 157.539 8.84025 157.539 9.34301V17.1915H146.638C140.775 17.1915 137.893 13.794 136.251 11.723C137.8 10.4189 139.578 10.3022 140.583 10.3691C141.991 10.4618 143.296 10.992 144.131 11.7727C143.583 12.5003 142.46 13.7614 141.179 14.7772C142.004 15.2285 142.931 15.6369 144.044 15.8548C145.82 14.1767 147.07 12.3956 147.505 11.7024C147.193 11.2099 145.481 8.01834 140.759 7.70433C135.656 7.36458 133.081 11.0589 132.639 11.5891C134.151 13.5315 135.501 15.2165 137.405 16.7402C136.48 17.0216 135.477 17.1915 134.394 17.1915H116.736V0.730932C116.575 0.641705 116.359 0.569638 116.09 0.514729C115.821 0.45982 115.455 0.434082 115.205 0.434082C114.72 0.434082 114.33 0.555911 114.034 0.797852C113.737 1.04151 113.59 1.3967 113.59 1.86342V17.1915V19.8614H134.396C136.511 19.8614 138.463 19.3295 140.194 18.4853C142.135 19.3999 144.292 19.8614 146.64 19.8614H172.854H172.852Z" fill="#000000"/>
<path d="M83.0611 25.047C83.5509 25.047 83.9653 24.872 84.3044 24.5236C84.6434 24.1736 84.8129 23.7635 84.8129 23.2916C84.8129 22.8197 84.6434 22.3856 84.3044 22.0459C83.9653 21.7061 83.5509 21.5363 83.0611 21.5363C82.5714 21.5363 82.1844 21.7061 81.8453 22.0459C81.5063 22.3856 81.3367 22.8009 81.3367 23.2916C81.3367 23.7824 81.5063 24.1753 81.8453 24.5236C82.1844 24.8737 82.5902 25.047 83.0611 25.047Z" fill="#000000"/>
<path d="M87.7702 25.047C88.26 25.047 88.6795 24.872 89.0272 24.5236C89.3765 24.1736 89.5495 23.7635 89.5495 23.2916C89.5495 22.8197 89.3748 22.3856 89.0272 22.0459C88.6778 21.7061 88.26 21.5363 87.7702 21.5363C87.2805 21.5363 86.8935 21.7061 86.5544 22.0459C86.2154 22.3856 86.0458 22.8009 86.0458 23.2916C86.0458 23.7824 86.2154 24.1753 86.5544 24.5236C86.8935 24.8737 87.2993 25.047 87.7702 25.047Z" fill="#000000"/>
</g>
<defs>
<clipPath id="clip0_538_598">
<rect width="178.092" height="53.4604" fill="#000000"/>
</clipPath>
</defs>
</svg>