<svg width="49" height="49" viewBox="0 0 49 49" fill="none" xmlns="http://www.w3.org/2000/svg">
<path d="M8.1632 34.104C8.1632 33.6683 8.51115 33.3637 8.90345 33.3637H29.1494C29.3669 33.3637 29.5412 33.4508 29.7154 33.625C29.9768 33.9297 29.9768 34.4086 29.6721 34.67C29.5412 34.8004 29.3669 34.8876 29.1494 34.8876H8.85966C8.46787 34.8443 8.1632 34.539 8.1632 34.104ZM10.3403 31.3608C10.3403 30.9252 10.6882 30.6205 11.08 30.6205H25.9711C26.1887 30.6205 26.3629 30.7076 26.5372 30.8386C26.798 31.1433 26.798 31.6222 26.4933 31.8836C26.3629 32.014 26.1887 32.1011 25.9711 32.1011H11.08C10.6882 32.1011 10.3403 31.7965 10.3403 31.3608ZM42.7774 32.1011C40.7312 32.014 38.6846 31.4912 36.8127 30.6205C36.6385 30.5334 36.5075 30.4901 36.3332 30.403C35.7677 30.0983 35.245 29.7936 34.7227 29.4451C34.2 29.0966 33.721 28.7048 33.2422 28.313C32.2843 27.4856 31.4569 26.5716 30.7171 25.5699C29.2365 23.5237 28.2786 21.1724 27.9301 18.6906C27.843 18.0813 27.7997 17.4714 27.7559 16.8182V16.3393V13.9447C27.7559 13.5096 28.1044 13.2044 28.4962 13.2044C28.9318 13.2044 29.2365 13.5529 29.2365 13.9447V15.8604V16.3831V16.8182C29.2365 17.3843 29.3236 17.9503 29.3669 18.5164C29.7154 20.7373 30.5861 22.8706 31.8925 24.6991C32.5457 25.6137 33.3292 26.4406 34.2 27.1809C34.6356 27.5294 35.0707 27.8774 35.5496 28.2259C36.0285 28.5305 36.5075 28.8358 37.0303 29.0966C38.8156 30.0112 40.8184 30.5334 42.8212 30.6643C43.2563 30.6643 43.561 31.0123 43.561 31.4479C43.561 31.7965 43.213 32.1011 42.7774 32.1011ZM42.7774 34.8443C40.5132 34.7571 38.2928 34.2344 36.2467 33.3637C35.8543 33.1894 35.5064 33.0151 35.1145 32.8414C34.6789 32.6233 34.2871 32.4058 33.8515 32.1444C33.6339 32.014 33.4164 31.8836 33.1988 31.7526C32.6761 31.4047 32.1972 31.0561 31.7182 30.6643C31.6311 30.5772 31.544 30.4901 31.4569 30.4463C30.3248 29.4884 29.3669 28.4001 28.4962 27.2247C26.7547 24.8296 25.6226 22.087 25.187 19.1696C25.1004 18.4293 25.0132 17.7328 25.0132 16.9925V16.4264V12.5517C25.0132 12.1161 25.3612 11.8114 25.753 11.8114C26.1887 11.8114 26.4933 12.1599 26.4933 12.5517V16.3831V16.9053C26.4933 17.5585 26.5804 18.255 26.6676 18.9082C27.2769 22.9577 29.3236 26.6148 32.4147 29.2709C32.9375 29.7065 33.4597 30.0983 34.0257 30.4901L34.2438 30.6205C34.7227 30.9252 35.245 31.2304 35.7677 31.4912C36.2028 31.7093 36.6817 31.9269 37.1607 32.1444C38.9893 32.8847 40.9055 33.2765 42.8212 33.3637C43.2563 33.3637 43.561 33.7122 43.561 34.1472C43.561 34.539 43.213 34.8443 42.7774 34.8443ZM6.37787 36.8471C6.37787 36.4115 6.72639 36.1068 7.11822 36.1068H35.6368C35.0274 35.8454 34.4175 35.584 33.8515 35.2794C33.5906 35.1489 33.3292 35.018 33.1117 34.8876C32.6328 34.6262 32.1538 34.3215 31.6749 34.0168C31.3697 33.7993 31.0651 33.5812 30.8037 33.3637C30.4119 33.059 30.0639 32.7976 29.6721 32.4491C29.5412 32.3187 29.4107 32.2315 29.2798 32.1011C28.7576 31.6222 28.2348 31.1433 27.7559 30.5772C27.2336 30.0112 26.7109 29.358 26.2758 28.7486C24.3162 26.0055 23.0104 22.8267 22.4877 19.4742C22.3572 18.6474 22.2701 17.8199 22.2701 16.9492V16.3393V11.3325C22.2701 10.8969 22.6181 10.5922 23.0104 10.5922C23.4455 10.5922 23.7502 10.9407 23.7502 11.3325V16.3831V16.9492C23.794 17.7328 23.8373 18.5164 23.9683 19.3C24.4472 22.3916 25.6659 25.3523 27.495 27.8774C28.1915 28.8791 28.9751 29.7936 29.8896 30.6205C30.151 30.8819 30.4119 31.0994 30.6732 31.3175C30.9779 31.5784 31.3264 31.8397 31.6749 32.1011C31.9796 32.3187 32.241 32.5362 32.5457 32.7105C32.8936 32.9286 33.1988 33.1461 33.5468 33.3204C33.8953 33.5379 34.2438 33.7122 34.5918 33.8864C35.2882 34.2344 35.9853 34.539 36.7256 34.8004C38.7284 35.5407 40.7746 35.9325 42.9077 36.0197H42.9949C43.3001 36.063 43.561 36.3243 43.6048 36.629V36.76V36.8471V36.9342V36.9775C43.6048 37.0208 43.561 37.1079 43.561 37.1518V37.1951C43.561 37.2389 43.5176 37.2822 43.4739 37.326L43.4305 37.3693C43.4305 37.4132 43.3873 37.4132 43.3434 37.4564C43.3001 37.4997 43.3001 37.4997 43.2563 37.4997C43.213 37.5436 43.1692 37.5436 43.1259 37.5869C43.1259 37.5869 43.0821 37.5869 43.0388 37.6307C42.9949 37.6307 42.9516 37.6307 42.8645 37.674H42.8212H7.11822C6.68255 37.6307 6.37787 37.2822 6.37787 36.8471ZM10.4707 0.0119629C5.20246 0.0119629 0.891602 4.27901 0.891602 9.59104V38.5447C0.891602 43.8134 5.15862 48.1238 10.4707 48.1238H39.4249C44.6931 48.1238 49.0034 43.8567 49.0034 38.5447V9.59104C49.0034 4.3223 44.7369 0.0119629 39.4249 0.0119629H10.4707Z" fill="#0A2C75"/>
</svg>
